<?xml version="1.0" encoding="UTF-8" standalone="no"?>
<!-- Created with Inkscape (http://www.inkscape.org/) -->

<svg
   version="1.1"
   id="svg1"
   width="521"
   height="395"
   viewBox="0 0 521 395"
   sodipodi:docname="icono.svg"
   inkscape:version="1.4.2 (f4327f4, 2025-05-13)"
   xmlns:inkscape="http://www.inkscape.org/namespaces/inkscape"
   xmlns:sodipodi="http://sodipodi.sourceforge.net/DTD/sodipodi-0.dtd"
   xmlns="http://www.w3.org/2000/svg"
   xmlns:svg="http://www.w3.org/2000/svg">
  <defs
     id="defs1" />
  <sodipodi:namedview
     id="namedview1"
     pagecolor="#ffffff"
     bordercolor="#000000"
     borderopacity="0.25"
     inkscape:showpageshadow="2"
     inkscape:pageopacity="0.0"
     inkscape:pagecheckerboard="0"
     inkscape:deskcolor="#d1d1d1"
     inkscape:zoom="1.0445489"
     inkscape:cx="159.87763"
     inkscape:cy="133.55048"
     inkscape:window-width="3440"
     inkscape:window-height="1369"
     inkscape:window-x="-8"
     inkscape:window-y="-8"
     inkscape:window-maximized="1"
     inkscape:current-layer="g1" />
  <g
     inkscape:groupmode="layer"
     inkscape:label="Image"
     id="g1">
    <g
       id="g2"
       transform="translate(-1.9147005,0.95735113)">
      <path
         style="fill:#edf5d1"
         d="m 366.08333,390.62813 c 0.22917,-0.20453 2.66667,-0.63174 5.41667,-0.94935 3.37192,-0.38945 4.18596,-0.30082 2.5,0.27219 -2.4984,0.84913 -8.70411,1.37994 -7.91667,0.67716 z m 27.68512,-6.79658 c 0.5811,-0.5811 1.64682,-0.85979 2.36826,-0.61931 0.74895,0.24965 0.29565,0.70294 -1.05655,1.05655 -1.66335,0.43497 -2.05378,0.30483 -1.31171,-0.43724 z m 14.75438,-5.61444 c 1.59377,-1.36555 6.65298,-3.31059 6.04271,-2.32316 -0.30902,0.50001 -2.01492,1.41566 -3.79088,2.03476 -1.77595,0.6191 -2.78928,0.74888 -2.25183,0.2884 z M 453,350.5 c 1.29175,-1.375 2.57363,-2.5 2.84863,-2.5 0.275,0 -0.55688,1.125 -1.84863,2.5 -1.29175,1.375 -2.57363,2.5 -2.84863,2.5 -0.275,0 0.55688,-1.125 1.84863,-2.5 z m 5,-3.81291 c 0,-0.1721 1.4625,-1.6346 3.25,-3.25 l 3.25,-2.93709 -2.93709,3.25 C 458.82513,346.77946 458,347.45965 458,346.68709 Z m 9,-9 c 0,-0.1721 1.4625,-1.6346 3.25,-3.25 l 3.25,-2.93709 -2.93709,3.25 C 467.82513,337.77946 467,338.45965 467,337.68709 Z M 476.5,327 c 0.99549,-1.1 2.03498,-2 2.30998,-2 0.275,0 -0.31449,0.9 -1.30998,2 -0.99549,1.1 -2.03498,2 -2.30998,2 -0.275,0 0.31449,-0.9 1.30998,-2 z m -132.75,-2.66228 c 0.6875,-0.27741 1.8125,-0.27741 2.5,0 0.6875,0.27741 0.125,0.50439 -1.25,0.50439 -1.375,0 -1.9375,-0.22698 -1.25,-0.50439 z M 365,321 c 0.825,-0.53316 2.175,-0.94464 3,-0.9144 0.98906,0.0362 0.81874,0.34772 -0.5,0.9144 -2.74909,1.18132 -4.32797,1.18132 -2.5,0 z m 123.56429,-10.29313 c 0.37553,-0.98622 0.93469,-1.54122 1.24258,-1.23333 0.30789,0.30789 6.4e-4,1.11479 -0.68278,1.79313 -0.98762,0.98026 -1.10248,0.8654 -0.5598,-0.5598 z M 414.5,292 c 2.70865,-2.75 5.14982,-5 5.42482,-5 0.275,0 -1.71617,2.25 -4.42482,5 -2.70865,2.75 -5.14982,5 -5.42482,5 -0.275,0 1.71617,-2.25 4.42482,-5 z m -81.7723,2.27827 c 1.77523,-0.22091 4.92523,-0.22454 7,-0.008 2.07476,0.21648 0.6223,0.39722 -3.2277,0.40166 -3.85,0.004 -5.54754,-0.17268 -3.7723,-0.39359 z M 356,292 c 0.825,-0.53316 2.175,-0.94464 3,-0.9144 0.98906,0.0362 0.81874,0.34772 -0.5,0.9144 -2.74909,1.18132 -4.32797,1.18132 -2.5,0 z m 146,-5 c 0.5887,-1.1 1.29537,-2 1.57037,-2 0.275,0 0.0183,0.9 -0.57037,2 -0.5887,1.1 -1.29537,2 -1.57037,2 -0.275,0 -0.0183,-0.9 0.57037,-2 z m -129.26667,-1.12409 c 0.67834,-0.68342 1.48524,-0.99067 1.79313,-0.68278 0.30789,0.30789 -0.24711,0.86705 -1.23333,1.24258 -1.4252,0.54268 -1.54006,0.42782 -0.5598,-0.5598 z m -33.92083,-5.55902 c 0.72187,-0.28887 1.58438,-0.25335 1.91667,0.0789 0.33229,0.33229 -0.25834,0.56864 -1.3125,0.52522 -1.16495,-0.048 -1.4019,-0.28494 -0.60417,-0.60416 z M 384,279.62244 c 0,-0.20765 0.7875,-0.99515 1.75,-1.75 1.58606,-1.24387 1.62143,-1.2085 0.37756,0.37756 C 384.82119,279.91575 384,280.44548 384,279.62244 Z M 391,273.5 c 1.29175,-1.375 2.57363,-2.5 2.84863,-2.5 0.275,0 -0.55688,1.125 -1.84863,2.5 -1.29175,1.375 -2.57363,2.5 -2.84863,2.5 -0.275,0 0.55688,-1.125 1.84863,-2.5 z m -28,1.10699 c 0,-0.21616 0.69837,-0.661 1.55194,-0.98855 0.88992,-0.34149 1.29132,-0.17385 0.94098,0.39301 C 364.90566,274.96166 363,275.4169 363,274.60699 Z M 508.57321,271 c 0.3678,-1.375 1.08577,-3.175 1.5955,-4 0.64411,-1.04249 0.72283,-0.73748 0.25808,1 -0.3678,1.375 -1.08577,3.175 -1.5955,4 -0.64411,1.04249 -0.72283,0.73748 -0.25808,-1 z M 396.5,268 c 0.99549,-1.1 2.03498,-2 2.30998,-2 0.275,0 -0.31449,0.9 -1.30998,2 -0.99549,1.1 -2.03498,2 -2.30998,2 -0.275,0 0.31449,-0.9 1.30998,-2 z M 384,260.5 c 1.86578,-1.925 3.61733,-3.5 3.89233,-3.5 0.275,0 -1.02655,1.575 -2.89233,3.5 -1.86578,1.925 -3.61733,3.5 -3.89233,3.5 -0.275,0 1.02655,-1.575 2.89233,-3.5 z m 54.56429,-3.79313 c 0.37553,-0.98622 0.93469,-1.54122 1.24258,-1.23333 0.30789,0.30789 6.4e-4,1.11479 -0.68278,1.79313 -0.98762,0.98026 -1.10248,0.8654 -0.5598,-0.5598 z M 409,250 c 0.5887,-1.1 1.29537,-2 1.57037,-2 0.275,0 0.0183,0.9 -0.57037,2 -0.5887,1.1 -1.29537,2 -1.57037,2 -0.275,0 -0.0183,-0.9 0.57037,-2 z m 106.99404,-9.4607 c 0.38049,-2.50716 0.94965,-4.81632 1.2648,-5.13147 0.83881,-0.83881 -0.38073,7.94755 -1.23407,8.89105 -0.39739,0.43939 -0.41123,-1.25242 -0.0307,-3.75958 z m -70.91509,-4.12263 c 0.048,-1.16495 0.28494,-1.4019 0.60416,-0.60417 0.28887,0.72187 0.25335,1.58437 -0.0789,1.91667 -0.33229,0.33229 -0.56864,-0.25834 -0.52522,-1.3125 z M 415.0856,235 c -0.0302,-0.825 0.38124,-2.175 0.9144,-3 1.18132,-1.82797 1.18132,-0.24909 0,2.5 -0.56668,1.31874 -0.87815,1.48906 -0.9144,0.5 z M 416,229.05902 c 0,-0.51754 0.44485,-1.21592 0.98855,-1.55194 0.56686,-0.35034 0.7345,0.0511 0.39301,0.94098 C 416.71677,230.18048 416,230.49745 416,229.05902 Z M 518.15789,225 c 0,-1.375 0.22698,-1.9375 0.50439,-1.25 0.27741,0.6875 0.27741,1.8125 0,2.5 -0.27741,0.6875 -0.50439,0.125 -0.50439,-1.25 z M 351.5,220 c 0.99549,-1.1 2.03498,-2 2.30998,-2 0.275,0 -0.31449,0.9 -1.30998,2 -0.99549,1.1 -2.03498,2 -2.30998,2 -0.275,0 0.31449,-0.9 1.30998,-2 z m 66.57895,-1.58333 c 0.048,-1.16495 0.28494,-1.4019 0.60416,-0.60417 0.28887,0.72187 0.25335,1.58437 -0.0789,1.91667 -0.33229,0.33229 -0.56864,-0.25834 -0.52522,-1.3125 z M 358,213.5 c 1.86578,-1.925 3.61733,-3.5 3.89233,-3.5 0.275,0 -1.02655,1.575 -2.89233,3.5 -1.86578,1.925 -3.61733,3.5 -3.89233,3.5 -0.275,0 1.02655,-1.575 2.89233,-3.5 z m -21.39699,0.66667 c -0.28327,-0.45834 0.12038,-0.83334 0.89699,-0.83334 0.77661,0 1.18026,0.375 0.89699,0.83334 C 338.11373,214.625 337.71008,215 337.5,215 c -0.21008,0 -0.61373,-0.375 -0.89699,-0.83333 z M 448.28601,210.5 c 0.008,-2.75 0.20172,-3.75631 0.43157,-2.23625 0.22986,1.52006 0.22371,3.77006 -0.0136,5 -0.23736,1.22994 -0.42542,-0.0137 -0.41792,-2.76375 z m -30.20706,-7.08333 c 0.048,-1.16495 0.28494,-1.4019 0.60416,-0.60417 0.28887,0.72187 0.25335,1.58437 -0.0789,1.91667 -0.33229,0.33229 -0.56864,-0.25834 -0.52522,-1.3125 z m -98.19987,-0.69575 c 0.4825,-0.4825 2.1696,-0.71609 3.7491,-0.5191 2.64362,0.32972 2.5739,0.39943 -0.87727,0.87727 -2.14974,0.29765 -3.37485,0.14485 -2.87183,-0.35817 z M 352,200.62244 c 0,-0.20765 0.7875,-0.99515 1.75,-1.75 1.58606,-1.24387 1.62143,-1.2085 0.37756,0.37756 C 352.82119,200.91575 352,201.44548 352,200.62244 Z m 24,-4 c 0,-0.20765 0.7875,-0.99515 1.75,-1.75 1.58606,-1.24387 1.62143,-1.2085 0.37756,0.37756 C 376.82119,196.91575 376,197.44548 376,196.62244 Z m 40.56429,-1.32931 c -0.54268,-1.4252 -0.42782,-1.54006 0.5598,-0.5598 0.68342,0.67834 0.99067,1.48524 0.68278,1.79313 -0.30789,0.30789 -0.86705,-0.24711 -1.24258,-1.23333 z M 518.15789,193 c 0,-1.375 0.22698,-1.9375 0.50439,-1.25 0.27741,0.6875 0.27741,1.8125 0,2.5 -0.27741,0.6875 -0.50439,0.125 -0.50439,-1.25 z m -103.53435,-5.53866 c -0.96498,-2.51469 -0.68031,-3.16355 0.49853,-1.13634 0.58369,1.00375 0.8506,2.03566 0.59313,2.29313 -0.25747,0.25747 -0.74872,-0.26309 -1.09166,-1.15679 z m 30.45541,-2.04467 c 0.048,-1.16495 0.28494,-1.4019 0.60416,-0.60417 0.28887,0.72187 0.25335,1.58437 -0.0789,1.91667 -0.33229,0.33229 -0.56864,-0.25834 -0.52522,-1.3125 z m 71.56171,-3.62701 c -0.33734,-1.25931 -0.57019,-3.41466 -0.51744,-4.78966 0.0565,-1.47317 0.45333,-0.67762 0.96611,1.93691 0.91858,4.68359 0.59422,6.74593 -0.44867,2.85275 z m -107.6865,-8.87531 c -0.61391,-1.1471 -0.92784,-2.274 -0.69762,-2.50422 0.23022,-0.23022 0.93203,0.70832 1.55958,2.08564 1.37807,3.02454 0.70709,3.35038 -0.86196,0.41858 z m -16.85377,-1.20983 c -1.26492,-2.10631 -1.24361,-2.12762 0.47833,-0.47833 0.99123,0.94941 1.58698,1.94144 1.3239,2.20452 -0.26308,0.26308 -1.07408,-0.5137 -1.80223,-1.72619 z M 515.15789,172 c 0,-1.375 0.22698,-1.9375 0.50439,-1.25 0.27741,0.6875 0.27741,1.8125 0,2.5 -0.27741,0.6875 -0.50439,0.125 -0.50439,-1.25 z m -6.21062,-22.63869 c -0.55177,-1.45128 -0.81767,-2.82425 -0.59087,-3.05104 0.2268,-0.2268 0.89098,0.96061 1.47596,2.63868 1.3004,3.73032 0.51544,4.09603 -0.88509,0.41236 z m -149.44019,-3.34986 c -0.35034,-0.56686 0.0511,-0.7345 0.94098,-0.39301 1.73242,0.66479 2.04939,1.38156 0.61096,1.38156 -0.51754,0 -1.21592,-0.44485 -1.55194,-0.98855 z M 372,136 c -0.90129,-0.58246 -1.02463,-0.97549 -0.30902,-0.98469 0.65504,-0.008 1.4691,0.43469 1.80902,0.98469 0.7673,1.24153 0.42112,1.24153 -1.5,0 z m 130.14426,-4.75 c -1.0912,-2.55004 -1.06651,-2.60886 0.33949,-0.80887 0.83394,1.06762 1.51625,2.30512 1.51625,2.75 0,1.51991 -0.67833,0.81036 -1.85574,-1.94113 z M 355,130.27914 c -1.375,-0.24667 -2.89252,-0.82541 -3.37226,-1.28608 -0.47975,-0.46067 0.7934,-0.46192 2.82922,-0.003 2.03582,0.45915 3.96584,1.09917 4.28893,1.42227 0.61242,0.61241 0.36178,0.60349 -3.74589,-0.13342 z m -21.25,-3.00254 c 1.7875,-0.22182 4.7125,-0.22182 6.5,0 1.7875,0.22183 0.325,0.40333 -3.25,0.40333 -3.575,0 -5.0375,-0.1815 -3.25,-0.40333 z m -94,-10.024 c 7.2875,-0.17086 19.2125,-0.17086 26.5,0 7.2875,0.17086 1.325,0.31066 -13.25,0.31066 -14.575,0 -20.5375,-0.1398 -13.25,-0.31066 z M 364,101 c -2.32726,-0.74532 -2.34861,-0.80753 -0.30902,-0.90032 1.20504,-0.0548 2.4691,0.35032 2.80902,0.90032 0.33992,0.55 0.47898,0.95514 0.30902,0.90032 C 366.63906,101.8455 365.375,101.44035 364,101 Z m 117.87244,-3.75 c -1.24387,-1.586056 -1.2085,-1.621426 0.37756,-0.377555 0.9625,0.754844 1.75,1.542344 1.75,1.75 0,0.823034 -0.82119,0.293303 -2.12756,-1.372445 z M 346,89.5 c 1.29175,-1.375 2.57363,-2.5 2.84863,-2.5 0.275,0 -0.55688,1.125 -1.84863,2.5 -1.29175,1.375 -2.57363,2.5 -2.84863,2.5 -0.275,0 0.55688,-1.125 1.84863,-2.5 z M 473.87244,87.25 C 472.62857,85.663944 472.66394,85.628574 474.25,86.872445 475.91575,88.178814 476.44548,89 475.62244,89 c -0.20765,0 -0.99515,-0.7875 -1.75,-1.75 z M 362.5,72 c 0.99549,-1.1 2.03498,-2 2.30998,-2 0.275,0 -0.31449,0.9 -1.30998,2 -0.99549,1.1 -2.03498,2 -2.30998,2 -0.275,0 0.31449,-0.9 1.30998,-2 z M 456.40499,69.75 454.5,67.5 l 2.25,1.904988 C 458.86444,71.195206 459.45524,72 458.65499,72 c -0.18976,0 -1.20226,-1.0125 -2.25,-2.25 z m -6.84612,-5.281803 C 448.49125,63.660688 448.09865,63 448.68643,63 c 0.58777,0 1.62888,0.675 2.31357,1.5 1.5572,1.876316 1.06734,1.865506 -1.44113,-0.0318 z m -78.78266,-1.644403 c 0.9016,-0.901609 0.88993,-1.543626 -0.05,-2.75 -1.08351,-1.390647 -1.02112,-1.412888 0.53612,-0.191115 1.3524,1.061059 1.49838,1.700725 0.62756,2.75 C 371.26576,63.384705 370.49521,64 370.17756,64 c -0.31766,0 -0.0483,-0.529293 0.59865,-1.176206 z M 441,58 c -0.90129,-0.58246 -1.02463,-0.975486 -0.30902,-0.984687 0.65504,-0.0084 1.4691,0.434687 1.80902,0.984687 0.7673,1.241525 0.42112,1.241525 -1.5,0 z M 358.92431,47.25 356.5,44.5 l 2.75,2.424314 c 1.5125,1.333373 2.75,2.570873 2.75,2.75 0,0.784274 -0.8098,0.145975 -3.07569,-2.424314 z m 59.51682,-2.805166 c -1.86402,-1.493392 -1.85176,-1.511856 0.30887,-0.464816 1.2375,0.599692 2.25,1.299517 2.25,1.555166 0,0.76522 -0.51861,0.544238 -2.55887,-1.09035 z M 351.87244,39.25 C 350.62857,37.663944 350.66394,37.628574 352.25,38.872445 353.91575,40.178814 354.44548,41 353.62244,41 c -0.20765,0 -0.99515,-0.7875 -1.75,-1.75 z M 403,38 c -0.825,-0.533156 -1.05,-0.969374 -0.5,-0.969374 0.55,0 1.675,0.436218 2.5,0.969374 0.825,0.533156 1.05,0.969374 0.5,0.969374 -0.55,0 -1.675,-0.436218 -2.5,-0.969374 z M 344.45295,31.75 340.5,27.5 l 4.25,3.952948 C 348.70246,35.12915 349.45953,36 348.70295,36 c -0.16338,0 -2.07588,-1.9125 -4.25,-4.25 z M 384.5,32.286934 c -3.06263,-0.736659 -4.00399,-2.105935 -1.06104,-1.543354 1.42483,0.272373 2.8355,0.891493 3.13483,1.375822 0.29934,0.484329 0.40519,0.828397 0.23523,0.764597 -0.16996,-0.0638 -1.20902,-0.33248 -2.30902,-0.597065 z m -34.75,-5.949215 c 0.6875,-0.277412 1.8125,-0.277412 2.5,0 0.6875,0.277413 0.125,0.504386 -1.25,0.504386 -1.375,0 -1.9375,-0.226973 -1.25,-0.504386 z"
         id="path11" />
      <path
         style="fill:#ced9fc"
         d="m 188.232,390 c 0,-1.925 0.2058,-2.7125 0.45733,-1.75 0.25152,0.9625 0.25152,2.5375 0,3.5 -0.25153,0.9625 -0.45733,0.175 -0.45733,-1.75 z M 119.24665,243.75799 119,96.015987 60.333226,95.757993 C 13.751064,95.553143 1.6132606,95.237366 1.408226,94.225 1.2662017,93.52375 1.37875,93.41125 1.6583333,93.975 1.9968142,94.657511 21.696266,95 60.614718,95 c 45.838152,0 58.550652,0.269682 58.923602,1.25 0.26155,0.6875 0.35842,67.4 0.21526,148.25 l -0.26027,147 z M 188.48599,233 c 0,-75.625 0.11875,-106.5625 0.2639,-68.75 0.14514,37.8125 0.14514,99.6875 0,137.5 -0.14515,37.8125 -0.2639,6.875 -0.2639,-68.75 z M 287,119.5 c 1.29175,-1.375 2.57363,-2.5 2.84863,-2.5 0.275,0 -0.55688,1.125 -1.84863,2.5 -1.29175,1.375 -2.57363,2.5 -2.84863,2.5 -0.275,0 0.55688,-1.125 1.84863,-2.5 z m 7,-7 c 1.29175,-1.375 2.57363,-2.5 2.84863,-2.5 0.275,0 -0.55688,1.125 -1.84863,2.5 -1.29175,1.375 -2.57363,2.5 -2.84863,2.5 -0.275,0 0.55688,-1.125 1.84863,-2.5 z m 7,-7 c 1.29175,-1.375 2.57363,-2.5 2.84863,-2.5 0.275,0 -0.55688,1.125 -1.84863,2.5 -1.29175,1.375 -2.57363,2.5 -2.84863,2.5 -0.275,0 0.55688,-1.125 1.84863,-2.5 z m 8.5,-8.5 c 0.99549,-1.1 2.03498,-2 2.30998,-2 0.275,0 -0.31449,0.9 -1.30998,2 -0.99549,1.1 -2.03498,2 -2.30998,2 -0.275,0 0.31449,-0.9 1.30998,-2 z m -96.25,-1.749116 c 13.0625,-0.157895 34.4375,-0.157895 47.5,0 13.0625,0.157895 2.375,0.287082 -23.75,0.287082 -26.125,0 -36.8125,-0.129187 -23.75,-0.287082 z M 335,70.5 c 1.29175,-1.375 2.57363,-2.5 2.84863,-2.5 0.275,0 -0.55688,1.125 -1.84863,2.5 -1.29175,1.375 -2.57363,2.5 -2.84863,2.5 -0.275,0 0.55688,-1.125 1.84863,-2.5 z m 7.42857,-8.5 c 0,-1.295238 0.3381,-1.633333 0.98572,-0.985714 0.64761,0.647619 0.64761,1.323809 0,1.971428 C 342.76667,63.633333 342.42857,63.295238 342.42857,62 Z M 18,46.059017 c 0,-0.517541 0.444846,-1.215913 0.988546,-1.551938 0.56686,-0.350339 0.734507,0.05106 0.393011,0.940983 C 18.716766,47.180479 18,47.497449 18,46.059017 Z M 309.98025,27.25 300.5,17.5 l 9.75,9.48025 c 5.3625,5.214137 9.75,9.601637 9.75,9.75 0,0.724643 -1.21459,-0.424553 -10.01975,-9.48025 z M 23.731213,29.919841 c 0.353609,-1.352204 0.806902,-1.805497 1.05655,-1.056551 0.240481,0.721441 -0.03821,1.787158 -0.619313,2.36826 -0.742068,0.742068 -0.872211,0.351636 -0.437237,-1.311709 z"
         id="path10" />
      <path
         style="fill:#a9cef2"
         d="m 210.34281,383.5 c 0.004,-4.4 0.17944,-6.07561 0.39069,-3.72357 0.21124,2.35204 0.20827,5.95204 -0.007,8 -0.21487,2.04796 -0.38771,0.12357 -0.38408,-4.27643 z m -21.98785,-5 c -0.003,-4.95 0.16605,-7.10108 0.37577,-4.78017 0.20972,2.3209 0.21222,6.3709 0.006,9 -0.20667,2.62909 -0.37827,0.73017 -0.38131,-4.21983 z m 96.03358,-270 c 0.002,-7.15 0.16103,-9.943785 0.35396,-6.20841 0.19293,3.73537 0.19149,9.58537 -0.003,13 -0.19468,3.41462 -0.35253,0.35841 -0.35078,-6.79159 z M 316.5,89 c 0.99549,-1.1 2.03498,-2 2.30998,-2 0.275,0 -0.31449,0.9 -1.30998,2 -0.99549,1.1 -2.03498,2 -2.30998,2 -0.275,0 0.31449,-0.9 1.30998,-2 z M 3.7139654,86.985796 c 0.2900963,-1.10933 0.8811634,-2.235572 1.3134825,-2.50276 0.432319,-0.267188 0.548683,0.421838 0.2585867,1.531168 -0.2900963,1.10933 -0.8811634,2.235572 -1.3134825,2.50276 -0.432319,0.267188 -0.548683,-0.421838 -0.2585867,-1.531168 z M 322,83.5 c 1.29175,-1.375 2.57363,-2.5 2.84863,-2.5 0.275,0 -0.55688,1.125 -1.84863,2.5 -1.29175,1.375 -2.57363,2.5 -2.84863,2.5 -0.275,0 0.55688,-1.125 1.84863,-2.5 z m 8.5,-8.5 c 0.99549,-1.1 2.03498,-2 2.30998,-2 0.275,0 -0.31449,0.9 -1.30998,2 -0.99549,1.1 -2.03498,2 -2.30998,2 -0.275,0 0.31449,-0.9 1.30998,-2 z M 9.7139654,69.985796 c 0.2900966,-1.10933 0.8811636,-2.235572 1.3134826,-2.50276 0.432319,-0.267188 0.548683,0.421838 0.258587,1.531168 -0.290097,1.10933 -0.881164,2.235572 -1.3134829,2.50276 -0.432319,0.267188 -0.548683,-0.421838 -0.2585867,-1.531168 z M 332,50.5 c -4.09747,-4.125 -7.22494,-7.5 -6.94994,-7.5 0.275,0 3.85247,3.375 7.94994,7.5 4.09747,4.125 7.22494,7.5 6.94994,7.5 -0.275,0 -3.85247,-3.375 -7.94994,-7.5 z M 320.87244,39.25 c -1.24387,-1.586056 -1.2085,-1.621426 0.37756,-0.377555 0.9625,0.754844 1.75,1.542344 1.75,1.75 0,0.823034 -0.82119,0.293303 -2.12756,-1.372445 z M 284.38536,14 c 0,-6.875 0.15977,-9.6875 0.35504,-6.25 0.19527,3.4375 0.19527,9.0625 0,12.5 -0.19527,3.4375 -0.35504,0.625 -0.35504,-6.25 z m 13.53895,1.25 -2.42431,-2.75 2.75,2.424314 c 1.5125,1.333373 2.75,2.570873 2.75,2.75 0,0.784274 -0.8098,0.145975 -3.07569,-2.424314 z m -7,-7 L 288.5,5.5 291.25,7.924314 C 293.82029,10.190201 294.45859,11 293.67431,11 c -0.17912,0 -1.41662,-1.2375 -2.75,-2.75 z"
         id="path9" />
      <path
         style="fill:#d3ef98"
         d="m 357.76166,391.29274 c 1.24391,-0.23919 3.04391,-0.23011 4,0.0202 0.95609,0.25029 -0.0617,0.446 -2.26166,0.4349 -2.2,-0.0111 -2.98225,-0.21589 -1.73834,-0.45508 z m 31.72138,-6.26529 c 0.26718,-0.43232 1.39343,-1.02339 2.50276,-1.31348 1.10933,-0.2901 1.79835,-0.17374 1.53116,0.25858 -0.26718,0.43232 -1.39343,1.02339 -2.50276,1.31348 -1.10933,0.2901 -1.79835,0.17374 -1.53116,-0.25858 z M 210.48515,247 c 0,-71.225 0.11913,-100.3625 0.26472,-64.75 0.1456,35.6125 0.1456,93.8875 0,129.5 -0.14559,35.6125 -0.26472,6.475 -0.26472,-64.75 z M 421,371.60699 c 0,-0.21616 0.69837,-0.661 1.55194,-0.98855 0.88992,-0.34149 1.29132,-0.17385 0.94098,0.39301 C 422.90566,371.96166 421,372.4169 421,371.60699 Z m 11.73333,-6.73108 c 0.67834,-0.68342 1.48524,-0.99067 1.79313,-0.68278 0.30789,0.30789 -0.24711,0.86705 -1.23333,1.24258 -1.4252,0.54268 -1.54006,0.42782 -0.5598,-0.5598 z M 464,340.62244 c 0,-0.20765 0.7875,-0.99515 1.75,-1.75 1.58606,-1.24387 1.62143,-1.2085 0.37756,0.37756 C 464.82119,340.91575 464,341.44548 464,340.62244 Z M 295.30822,325.25236 c 7.04451,-0.17214 18.29451,-0.17164 25,10e-4 6.70548,0.17275 0.94178,0.31359 -12.80822,0.31298 -13.75,-6.1e-4 -19.2363,-0.14195 -12.19178,-0.31409 z M 496,298.05902 c 0,-0.51754 0.44485,-1.21592 0.98855,-1.55194 0.56686,-0.35034 0.7345,0.0511 0.39301,0.94098 C 496.71677,299.18048 496,299.49745 496,298.05902 Z M 330.43161,287 l 0.0684,-6.5 3.75865,-0.10484 c 3.74102,-0.10436 3.74241,-0.10291 0.29438,0.30772 l -3.46428,0.41256 -0.36276,6.19228 -0.36276,6.19228 z m 21.31839,5.33772 c 0.6875,-0.27741 1.8125,-0.27741 2.5,0 0.6875,0.27741 0.125,0.50439 -1.25,0.50439 -1.375,0 -1.9375,-0.22698 -1.25,-0.50439 z m -10,-12 c 0.6875,-0.27741 1.8125,-0.27741 2.5,0 0.6875,0.27741 0.125,0.50439 -1.25,0.50439 -1.375,0 -1.9375,-0.22698 -1.25,-0.50439 z m 23.98333,-6.46181 c 0.67834,-0.68342 1.48524,-0.99067 1.79313,-0.68278 0.30789,0.30789 -0.24711,0.86705 -1.23333,1.24258 -1.4252,0.54268 -1.54006,0.42782 -0.5598,-0.5598 z M 397.03063,243.5 c 0,-0.55 0.43621,-1.675 0.96937,-2.5 0.53316,-0.825 0.96937,-1.05 0.96937,-0.5 0,0.55 -0.43621,1.675 -0.96937,2.5 -0.53316,0.825 -0.96937,1.05 -0.96937,0.5 z M 444.0856,242 c -0.0302,-0.825 0.38124,-2.175 0.9144,-3 1.18132,-1.82797 1.18132,-0.24909 0,2.5 -0.56668,1.31874 -0.87815,1.48906 -0.9144,0.5 z m 73.18676,-11 c 0,-2.475 0.19502,-3.4875 0.43337,-2.25 0.23836,1.2375 0.23836,3.2625 0,4.5 -0.23835,1.2375 -0.43337,0.225 -0.43337,-2.25 z M 328.47654,223.75 320.5,215.5 l 8.25,7.97654 c 7.66235,7.40837 8.70589,8.52346 7.97654,8.52346 -0.1504,0 -3.8629,-3.7125 -8.25,-8.25 z M 345,225.5 c 1.29175,-1.375 2.57363,-2.5 2.84863,-2.5 0.275,0 -0.55688,1.125 -1.84863,2.5 -1.29175,1.375 -2.57363,2.5 -2.84863,2.5 -0.275,0 0.55688,-1.125 1.84863,-2.5 z m 71.92091,-1.25091 c 0.47784,-3.45117 0.54755,-3.52089 0.87727,-0.87727 0.19699,1.5795 -0.0366,3.2666 -0.5191,3.7491 -0.50302,0.50302 -0.65582,-0.72209 -0.35817,-2.87183 z m -12.84196,-5.83242 c 0.048,-1.16495 0.28494,-1.4019 0.60416,-0.60417 0.28887,0.72187 0.25335,1.58437 -0.0789,1.91667 -0.33229,0.33229 -0.56864,-0.25834 -0.52522,-1.3125 z M 448.15789,217 c 0,-1.375 0.22698,-1.9375 0.50439,-1.25 0.27741,0.6875 0.27741,1.8125 0,2.5 -0.27741,0.6875 -0.50439,0.125 -0.50439,-1.25 z m -43.81508,-8.5 c 0.004,-4.4 0.17944,-6.07561 0.39069,-3.72357 0.21124,2.35204 0.20827,5.95204 -0.007,8 -0.21487,2.04796 -0.38771,0.12357 -0.38408,-4.27643 z m -86.47037,4.75 c -1.24387,-1.58606 -1.2085,-1.62143 0.37756,-0.37756 0.9625,0.75485 1.75,1.54235 1.75,1.75 0,0.82304 -0.82119,0.29331 -2.12756,-1.37244 z m 13.58051,-4.5 -3.95295,-4.25 4.25,3.95295 c 3.95246,3.6762 4.70953,4.54705 3.95295,4.54705 -0.16338,0 -2.07588,-1.9125 -4.25,-4.25 z M 368,203.5 c 3.54322,-3.575 6.66722,-6.5 6.94222,-6.5 0.275,0 -2.399,2.925 -5.94222,6.5 -3.54322,3.575 -6.66722,6.5 -6.94222,6.5 -0.275,0 2.399,-2.925 5.94222,-6.5 z m -19,0 c 1.29175,-1.375 2.57363,-2.5 2.84863,-2.5 0.275,0 -0.55688,1.125 -1.84863,2.5 -1.29175,1.375 -2.57363,2.5 -2.84863,2.5 -0.275,0 0.55688,-1.125 1.84863,-2.5 z m 99.07895,0.91667 c 0.048,-1.16495 0.28494,-1.4019 0.60416,-0.60417 0.28887,0.72187 0.25335,1.58437 -0.0789,1.91667 -0.33229,0.33229 -0.56864,-0.25834 -0.52522,-1.3125 z M 417.19495,199.5 c 0.0204,-1.65 0.2445,-2.20394 0.49804,-1.23097 0.25354,0.97297 0.23687,2.32297 -0.0371,3 -0.27393,0.67703 -0.48137,-0.11903 -0.46099,-1.76903 z M 357,196.62244 c 0,-0.20765 0.7875,-0.99515 1.75,-1.75 1.58606,-1.24387 1.62143,-1.2085 0.37756,0.37756 C 357.82119,196.91575 357,197.44548 357,196.62244 Z M 517.25218,187.5 c 0.0111,-2.2 0.21589,-2.98225 0.45508,-1.73834 0.23919,1.24391 0.23011,3.04391 -0.0202,4 -0.25029,0.95609 -0.446,-0.0617 -0.4349,-2.26166 z m -72.62864,-5.03866 c -0.34295,-0.8937 -0.59502,-2.15061 -0.56015,-2.79313 0.0349,-0.64251 0.49453,-0.0904 1.02148,1.22697 0.52695,1.31735 0.77902,2.57426 0.56015,2.79313 -0.21887,0.21887 -0.67854,-0.33327 -1.02148,-1.22697 z m -34.16466,-5.52787 c -0.36253,-0.58659 -0.44468,-1.281 -0.18255,-1.54313 0.26212,-0.26213 0.74306,0.21781 1.06875,1.06653 0.67618,1.76211 0.0999,2.07206 -0.8862,0.4766 z M 402.87244,163.25 c -1.24387,-1.58606 -1.2085,-1.62143 0.37756,-0.37756 1.66575,1.30637 2.19548,2.12756 1.37244,2.12756 -0.20765,0 -0.99515,-0.7875 -1.75,-1.75 z m -19.43535,-2.5 -2.93709,-3.25 3.25,2.93709 c 3.02946,2.73778 3.70965,3.56291 2.93709,3.56291 -0.1721,0 -1.6346,-1.4625 -3.25,-3.25 z m 53.1272,-0.45687 c -0.54268,-1.4252 -0.42782,-1.54006 0.5598,-0.5598 0.68342,0.67834 0.99067,1.48524 0.68278,1.79313 -0.30789,0.30789 -0.86705,-0.24711 -1.24258,-1.23333 z M 393,151.5 c -2.42903,-2.475 -4.19142,-4.5 -3.91642,-4.5 0.275,0 2.48739,2.025 4.91642,4.5 2.42903,2.475 4.19142,4.5 3.91642,4.5 -0.275,0 -2.48739,-2.025 -4.91642,-4.5 z m 117.34508,2.95687 c -0.32569,-0.84872 -0.36872,-1.76657 -0.0956,-2.03966 0.27309,-0.2731 0.73656,0.42131 1.02992,1.54313 0.62315,2.38293 -0.0692,2.75089 -0.9343,0.49653 z M 333.7277,141.27827 c 1.77523,-0.22091 4.92523,-0.22454 7,-0.008 2.07476,0.21648 0.6223,0.39722 -3.2277,0.40166 -3.85,0.004 -5.54754,-0.17268 -3.7723,-0.39359 z M 417.87244,132.25 c -1.24387,-1.58606 -1.2085,-1.62143 0.37756,-0.37756 1.66575,1.30637 2.19548,2.12756 1.37244,2.12756 -0.20765,0 -0.99515,-0.7875 -1.75,-1.75 z M 347,129 l -4.5,-0.69961 4.19098,-0.1502 c 2.30504,-0.0826 4.4691,0.29981 4.80902,0.84981 0.33992,0.55 0.47898,0.93241 0.30902,0.84981 C 351.63906,129.7672 349.475,129.38479 347,129 Z m 57.87244,-8.75 c -1.24387,-1.58606 -1.2085,-1.62143 0.37756,-0.37756 1.66575,1.30637 2.19548,2.12756 1.37244,2.12756 -0.20765,0 -0.99515,-0.7875 -1.75,-1.75 z M 369.5,102.28693 c -3.06263,-0.73665 -4.00399,-2.10593 -1.06104,-1.54335 1.42483,0.27237 2.8355,0.89149 3.13483,1.37582 0.29934,0.48433 0.40519,0.8284 0.23523,0.7646 C 371.63906,102.8202 370.6,102.55152 369.5,102.28693 Z M 483.87244,100.25 c -1.24387,-1.586056 -1.2085,-1.621426 0.37756,-0.377555 1.66575,1.306365 2.19548,2.127555 1.37244,2.127555 -0.20765,0 -0.99515,-0.7875 -1.75,-1.75 z M 344,92.622445 c 0,-0.207656 0.7875,-0.995156 1.75,-1.75 1.58606,-1.243871 1.62143,-1.208501 0.37756,0.377555 C 344.82119,92.915748 344,93.445479 344,92.622445 Z m 7,-8 c 0,-0.207656 0.7875,-0.995156 1.75,-1.75 1.58606,-1.243871 1.62143,-1.208501 0.37756,0.377555 C 351.82119,84.915748 351,85.445479 351,84.622445 Z m 14,-15 c 0,-0.207656 0.7875,-0.995156 1.75,-1.75 1.58606,-1.243871 1.62143,-1.208501 0.37756,0.377555 C 365.82119,69.915748 365,70.445479 365,69.622445 Z M 363.40499,51.75 361.5,49.5 l 2.25,1.904988 c 1.2375,1.047743 2.25,2.060243 2.25,2.25 0,0.800253 -0.80479,0.209457 -2.59501,-1.904988 z M 400,37 c -0.90129,-0.58246 -1.02463,-0.975486 -0.30902,-0.984687 0.65504,-0.0084 1.4691,0.434687 1.80902,0.984687 0.7673,1.241525 0.42112,1.241525 -1.5,0 z m -21.1875,-6.683114 c 0.72187,-0.288871 1.58438,-0.253344 1.91667,0.07895 0.33229,0.332292 -0.25834,0.568641 -1.3125,0.52522 -1.16495,-0.04798 -1.4019,-0.284941 -0.60417,-0.604167 z M 344.25,26.310674 c 0.9625,-0.251527 2.5375,-0.251527 3.5,0 0.9625,0.251528 0.175,0.457323 -1.75,0.457323 -1.925,0 -2.7125,-0.205795 -1.75,-0.457323 z"
         id="path8" />
      <path
         style="fill:#c8f66e"
         d="m 243.82274,392.25038 c 18.32751,-0.15264 48.02751,-0.15255 66,1.9e-4 17.97249,0.15275 2.97726,0.27763 -33.32274,0.27752 -36.3,-1.1e-4 -51.00477,-0.12508 -32.67726,-0.27771 z m 102.44629,0.0566 c 0.97297,-0.25354 2.32297,-0.23687 3,0.0371 0.67703,0.27393 -0.11903,0.48137 -1.76903,0.46099 -1.65,-0.0204 -2.20394,-0.2445 -1.23097,-0.49804 z M 334.7277,325.27827 c 1.77523,-0.22091 4.92523,-0.22454 7,-0.008 2.07476,0.21648 0.6223,0.39722 -3.2277,0.40166 -3.85,0.004 -5.54754,-0.17268 -3.7723,-0.39359 z m 8.0223,-31.984 c 1.2375,-0.23836 3.2625,-0.23836 4.5,0 1.2375,0.23835 0.225,0.43337 -2.25,0.43337 -2.475,0 -3.4875,-0.19502 -2.25,-0.43337 z M 417,290.62244 c 0,-0.20765 0.7875,-0.99515 1.75,-1.75 1.58606,-1.24387 1.62143,-1.2085 0.37756,0.37756 C 417.82119,290.91575 417,291.44548 417,290.62244 Z m 4,-5 c 0,-0.20765 0.7875,-0.99515 1.75,-1.75 1.58606,-1.24387 1.62143,-1.2085 0.37756,0.37756 C 421.82119,285.91575 421,286.44548 421,285.62244 Z m -73.1875,-6.30555 c 0.72187,-0.28887 1.58438,-0.25335 1.91667,0.0789 0.33229,0.33229 -0.25834,0.56864 -1.3125,0.52522 -1.16495,-0.048 -1.4019,-0.28494 -0.60417,-0.60416 z m 162.91871,-17.39705 c 0.35361,-1.3522 0.8069,-1.8055 1.05655,-1.05655 0.24048,0.72144 -0.0382,1.78716 -0.61931,2.36826 -0.74207,0.74207 -0.87221,0.35164 -0.43724,-1.31171 z M 384.5,261 c 0.99549,-1.1 2.03498,-2 2.30998,-2 0.275,0 -0.31449,0.9 -1.30998,2 -0.99549,1.1 -2.03498,2 -2.30998,2 -0.275,0 0.31449,-0.9 1.30998,-2 z M 443,245.05902 c 0,-0.51754 0.44485,-1.21592 0.98855,-1.55194 0.56686,-0.35034 0.7345,0.0511 0.39301,0.94098 C 443.71677,246.18048 443,246.49745 443,245.05902 Z m -39.92105,-19.64235 c 0.048,-1.16495 0.28494,-1.4019 0.60416,-0.60417 0.28887,0.72187 0.25335,1.58437 -0.0789,1.91667 -0.33229,0.33229 -0.56864,-0.25834 -0.52522,-1.3125 z m 114,0 c 0.048,-1.16495 0.28494,-1.4019 0.60416,-0.60417 0.28887,0.72187 0.25335,1.58437 -0.0789,1.91667 -0.33229,0.33229 -0.56864,-0.25834 -0.52522,-1.3125 z m -100,-6 c 0.048,-1.16495 0.28494,-1.4019 0.60416,-0.60417 0.28887,0.72187 0.25335,1.58437 -0.0789,1.91667 -0.33229,0.33229 -0.56864,-0.25834 -0.52522,-1.3125 z m 101,-2 c 0.048,-1.16495 0.28494,-1.4019 0.60416,-0.60417 0.28887,0.72187 0.25335,1.58437 -0.0789,1.91667 -0.33229,0.33229 -0.56864,-0.25834 -0.52522,-1.3125 z M 351,202.62244 c 0,-0.20765 0.7875,-0.99515 1.75,-1.75 1.58606,-1.24387 1.62143,-1.2085 0.37756,0.37756 C 351.82119,202.91575 351,203.44548 351,202.62244 Z m 52.07895,-6.20577 c 0.048,-1.16495 0.28494,-1.4019 0.60416,-0.60417 0.28887,0.72187 0.25335,1.58437 -0.0789,1.91667 -0.33229,0.33229 -0.56864,-0.25834 -0.52522,-1.3125 z M 375,196.62244 c 0,-0.20765 0.7875,-0.99515 1.75,-1.75 1.58606,-1.24387 1.62143,-1.2085 0.37756,0.37756 C 375.82119,196.91575 375,197.44548 375,196.62244 Z m 142.07895,-4.20577 c 0.048,-1.16495 0.28494,-1.4019 0.60416,-0.60417 0.28887,0.72187 0.25335,1.58437 -0.0789,1.91667 -0.33229,0.33229 -0.56864,-0.25834 -0.52522,-1.3125 z M 364.5,189 c 0.99549,-1.1 2.03498,-2 2.30998,-2 0.275,0 -0.31449,0.9 -1.30998,2 -0.99549,1.1 -2.03498,2 -2.30998,2 -0.275,0 0.31449,-0.9 1.30998,-2 z m 32.95888,-9.06653 c -0.36253,-0.58659 -0.44468,-1.281 -0.18255,-1.54313 0.26212,-0.26213 0.74306,0.21781 1.06875,1.06653 0.67618,1.76211 0.0999,2.07206 -0.8862,0.4766 z m 113.8862,-21.4766 c -0.32569,-0.84872 -0.36872,-1.76657 -0.0956,-2.03966 0.27309,-0.2731 0.73656,0.42131 1.02992,1.54313 0.62315,2.38293 -0.0692,2.75089 -0.9343,0.49653 z m -181.2089,-23.14785 c -0.0749,-3.40504 0.20132,-6.39959 0.61382,-6.65455 0.4125,-0.25497 0.61846,1.63098 0.45768,4.19098 -0.49835,7.93529 -0.92934,8.92621 -1.0715,2.46357 z m 173.42811,0.98411 c -0.54268,-1.4252 -0.42782,-1.54006 0.5598,-0.5598 0.68342,0.67834 0.99067,1.48524 0.68278,1.79313 -0.30789,0.30789 -0.86705,-0.24711 -1.24258,-1.23333 z m -165.80263,-8.00039 c 1.24391,-0.23919 3.04391,-0.23011 4,0.0202 0.95609,0.25029 -0.0617,0.446 -2.26166,0.4349 -2.2,-0.0111 -2.98225,-0.21589 -1.73834,-0.45508 z M 373,103 c -0.90129,-0.58246 -1.02463,-0.97549 -0.30902,-0.98469 0.65504,-0.008 1.4691,0.43469 1.80902,0.98469 0.7673,1.24153 0.42112,1.24153 -1.5,0 z M 354,81.622445 c 0,-0.207656 0.7875,-0.995156 1.75,-1.75 1.58606,-1.243871 1.62143,-1.208501 0.37756,0.377555 C 354.82119,81.915748 354,82.445479 354,81.622445 Z M 364.5,71 c 0.99549,-1.1 2.03498,-2 2.30998,-2 0.275,0 -0.31449,0.9 -1.30998,2 -0.99549,1.1 -2.03498,2 -2.30998,2 -0.275,0 0.31449,-0.9 1.30998,-2 z M 455.40499,69.75 453.5,67.5 l 2.25,1.904988 C 457.86444,71.195206 458.45524,72 457.65499,72 c -0.18976,0 -1.20226,-1.0125 -2.25,-2.25 z M 411.55764,42.093259 c -0.30822,-0.498708 0.34022,-0.671224 1.44098,-0.383369 2.33499,0.610613 2.63015,1.29011 0.5604,1.29011 -0.79254,0 -1.69316,-0.408034 -2.00138,-0.906741 z M 371.75,29.337719 c 0.6875,-0.277412 1.8125,-0.277412 2.5,0 0.6875,0.277413 0.125,0.504386 -1.25,0.504386 -1.375,0 -1.9375,-0.226973 -1.25,-0.504386 z"
         id="path7" />
      <path
         style="fill:#b5ea58"
         d="m 352.8125,391.31689 c 0.72187,-0.28887 1.58438,-0.25335 1.91667,0.0789 0.33229,0.33229 -0.25834,0.56864 -1.3125,0.52522 -1.16495,-0.048 -1.4019,-0.28494 -0.60417,-0.60416 z M 211.34941,383 c 0,-4.675 0.17226,-6.5875 0.3828,-4.25 0.21053,2.3375 0.21053,6.1625 0,8.5 -0.21054,2.3375 -0.3828,0.425 -0.3828,-4.25 z M 382,386.61658 c 0,-0.21089 1.11138,-0.59588 2.46974,-0.85555 1.35835,-0.25966 2.2318,-0.0871 1.94098,0.38343 C 385.89864,386.97302 382,387.39033 382,386.61658 Z m 57.22619,-26.1953 c 0.94941,-0.99123 1.94144,-1.58698 2.20452,-1.3239 0.26308,0.26308 -0.5137,1.07408 -1.72619,1.80223 -2.10631,1.26492 -2.12762,1.24361 -0.47833,-0.47833 z M 470,333.62244 c 0,-0.20765 0.7875,-0.99515 1.75,-1.75 1.58606,-1.24387 1.62143,-1.2085 0.37756,0.37756 C 470.82119,333.91575 470,334.44548 470,333.62244 Z M 278.46094,324.75 c -0.26196,-0.6875 -0.36028,-47.6 -0.2185,-104.25 l 0.25779,-103 0.49989,104.25006 c 0.27493,57.33754 0.37326,104.25004 0.2185,104.25 -0.15477,-3e-5 -0.49572,-0.56256 -0.75768,-1.25006 z M 347,325.04903 c 2.4984,-0.84913 8.70411,-1.37994 7.91667,-0.67716 -0.22917,0.20453 -2.66667,0.63174 -5.41667,0.94935 -3.37192,0.38945 -4.18596,0.30082 -2.5,-0.27219 z m -13.75,-31.76528 c 1.5125,-0.22913 3.9875,-0.22913 5.5,0 1.5125,0.22912 0.275,0.41659 -2.75,0.41659 -3.025,0 -4.2625,-0.18747 -2.75,-0.41659 z m 20.5625,-14.96686 c 0.72187,-0.28887 1.58438,-0.25335 1.91667,0.0789 0.33229,0.33229 -0.25834,0.56864 -1.3125,0.52522 -1.16495,-0.048 -1.4019,-0.28494 -0.60417,-0.60416 z M 505,278.05902 c 0,-0.51754 0.44485,-1.21592 0.98855,-1.55194 0.56686,-0.35034 0.7345,0.0511 0.39301,0.94098 C 505.71677,279.18048 505,279.49745 505,278.05902 Z m 7.07895,-21.64235 c 0.048,-1.16495 0.28494,-1.4019 0.60416,-0.60417 0.28887,0.72187 0.25335,1.58438 -0.0789,1.91667 -0.33229,0.33229 -0.56864,-0.25834 -0.52522,-1.3125 z M 390,255.28911 c 0,-0.57432 0.7875,-1.66182 1.75,-2.41667 1.61876,-1.26951 1.63998,-1.22245 0.28297,0.62756 -0.80687,1.1 -1.59437,2.1875 -1.75,2.41667 C 390.12734,256.14583 390,255.86343 390,255.28911 Z M 411,244 c 0.5887,-1.1 1.29537,-2 1.57037,-2 0.275,0 0.0183,0.9 -0.57037,2 -0.5887,1.1 -1.29537,2 -1.57037,2 -0.275,0 -0.0183,-0.9 0.57037,-2 z m -68.5,-17 c 0.99549,-1.1 2.03498,-2 2.30998,-2 0.275,0 -0.31449,0.9 -1.30998,2 -0.99549,1.1 -2.03498,2 -2.30998,2 -0.275,0 0.31449,-0.9 1.30998,-2 z m -11.09501,-1.25 -1.90499,-2.25 2.25,1.90499 c 1.2375,1.04774 2.25,2.06024 2.25,2.25 0,0.80025 -0.80479,0.20945 -2.59501,-1.90499 z M 348,222.62244 c 0,-0.20765 0.7875,-0.99515 1.75,-1.75 1.58606,-1.24387 1.62143,-1.2085 0.37756,0.37756 C 348.82119,222.91575 348,223.44548 348,222.62244 Z M 324.87244,219.25 c -1.24387,-1.58606 -1.2085,-1.62143 0.37756,-0.37756 0.9625,0.75485 1.75,1.54235 1.75,1.75 0,0.82304 -0.82119,0.29331 -2.12756,-1.37244 z M 418.27236,211 c 0,-2.475 0.19502,-3.4875 0.43337,-2.25 0.23836,1.2375 0.23836,3.2625 0,4.5 -0.23835,1.2375 -0.43337,0.225 -0.43337,-2.25 z m 30.92259,-0.5 c 0.0204,-1.65 0.2445,-2.20394 0.49804,-1.23097 0.25354,0.97297 0.23687,2.32297 -0.0371,3 -0.27393,0.67703 -0.48137,-0.11903 -0.46099,-1.76903 z m 68.884,0.91667 c 0.048,-1.16495 0.28494,-1.4019 0.60416,-0.60417 0.28887,0.72187 0.25335,1.58437 -0.0789,1.91667 -0.33229,0.33229 -0.56864,-0.25834 -0.52522,-1.3125 z m -202,-2 c 0.048,-1.16495 0.28494,-1.4019 0.60416,-0.60417 0.28887,0.72187 0.25335,1.58437 -0.0789,1.91667 -0.33229,0.33229 -0.56864,-0.25834 -0.52522,-1.3125 z M 344,208.5 c 1.29175,-1.375 2.57363,-2.5 2.84863,-2.5 0.275,0 -0.55688,1.125 -1.84863,2.5 -1.29175,1.375 -2.57363,2.5 -2.84863,2.5 -0.275,0 0.55688,-1.125 1.84863,-2.5 z m -14.12756,-0.25 c -1.24387,-1.58606 -1.2085,-1.62143 0.37756,-0.37756 1.66575,1.30637 2.19548,2.12756 1.37244,2.12756 -0.20765,0 -0.99515,-0.7875 -1.75,-1.75 z m 188.20651,-0.83333 c 0.048,-1.16495 0.28494,-1.4019 0.60416,-0.60417 0.28887,0.72187 0.25335,1.58437 -0.0789,1.91667 -0.33229,0.33229 -0.56864,-0.25834 -0.52522,-1.3125 z m 0,-4 c 0.048,-1.16495 0.28494,-1.4019 0.60416,-0.60417 0.28887,0.72187 0.25335,1.58437 -0.0789,1.91667 -0.33229,0.33229 -0.56864,-0.25834 -0.52522,-1.3125 z m 0,-5 c 0.048,-1.16495 0.28494,-1.4019 0.60416,-0.60417 0.28887,0.72187 0.25335,1.58437 -0.0789,1.91667 -0.33229,0.33229 -0.56864,-0.25834 -0.52522,-1.3125 z m -75.51466,-24.12354 c -0.54268,-1.4252 -0.42782,-1.54006 0.5598,-0.5598 0.68342,0.67834 0.99067,1.48524 0.68278,1.79313 -0.30789,0.30789 -0.86705,-0.24711 -1.24258,-1.23333 z m 69.51466,-12.87646 c 0.048,-1.16495 0.28494,-1.4019 0.60416,-0.60417 0.28887,0.72187 0.25335,1.58437 -0.0789,1.91667 -0.33229,0.33229 -0.56864,-0.25834 -0.52522,-1.3125 z M 383.87244,160.25 c -1.24387,-1.58606 -1.2085,-1.62143 0.37756,-0.37756 1.66575,1.30637 2.19548,2.12756 1.37244,2.12756 -0.20765,0 -0.99515,-0.7875 -1.75,-1.75 z m -37.3148,-18.15674 c -0.30822,-0.49871 0.34022,-0.67122 1.44098,-0.38337 2.33499,0.61061 2.63015,1.29011 0.5604,1.29011 -0.79254,0 -1.69316,-0.40803 -2.00138,-0.90674 z m 17,-9 c -0.30822,-0.49871 0.34022,-0.67122 1.44098,-0.38337 2.33499,0.61061 2.63015,1.29011 0.5604,1.29011 -0.79254,0 -1.69316,-0.40803 -2.00138,-0.90674 z M 332.75,128.33772 c 0.6875,-0.27741 1.8125,-0.27741 2.5,0 0.6875,0.27741 0.125,0.50439 -1.25,0.50439 -1.375,0 -1.9375,-0.22698 -1.25,-0.50439 z M 407.87244,122.25 c -1.24387,-1.58606 -1.2085,-1.62143 0.37756,-0.37756 1.66575,1.30637 2.19548,2.12756 1.37244,2.12756 -0.20765,0 -0.99515,-0.7875 -1.75,-1.75 z m 55.05187,-46 -2.42431,-2.75 2.75,2.424314 c 1.5125,1.333373 2.75,2.570873 2.75,2.75 0,0.784274 -0.8098,0.145975 -3.07569,-2.424314 z M 366.8125,28.316886 c 0.72187,-0.288871 1.58438,-0.253344 1.91667,0.07895 0.33229,0.332292 -0.25834,0.568641 -1.3125,0.52522 -1.16495,-0.04798 -1.4019,-0.284941 -0.60417,-0.604167 z"
         id="path6" />
      <path
         style="fill:#63a0ef"
         d="m 136.75,392.25161 c 9.4875,-0.16436 25.0125,-0.16436 34.5,0 9.4875,0.16436 1.725,0.29883 -17.25,0.29883 -18.975,0 -26.7375,-0.13447 -17.25,-0.29883 z M 304,101.62244 c 0,-0.20765 0.7875,-0.99515 1.75,-1.749995 1.58606,-1.243871 1.62143,-1.208501 0.37756,0.377555 C 304.82119,101.91575 304,102.44548 304,101.62244 Z M 311,94.5 c 1.86578,-1.925 3.61733,-3.5 3.89233,-3.5 0.275,0 -1.02655,1.575 -2.89233,3.5 -1.86578,1.925 -3.61733,3.5 -3.89233,3.5 -0.275,0 1.02655,-1.575 2.89233,-3.5 z M 188.65451,94.75 C 189.26056,93.769388 285,93.769388 285,94.75 c 0,0.4125 -21.78203,0.75 -48.40451,0.75 -26.62248,0 -48.19592,-0.3375 -47.94098,-0.75 z M 2.4461493,93.912868 c -0.3695366,-0.597923 -0.1444337,-1.610423 0.5002286,-2.25 0.893682,-0.886633 1.0145903,-0.749086 0.5089878,0.579031 -0.6249735,1.64168 2.6941921,1.75722 57.6907543,2.008215 L 119.5,94.516431 61.309017,94.758215 C 20.242373,94.928848 2.920313,94.680081 2.4461493,93.912868 Z M 316.5,88 c 0.99549,-1.1 2.03498,-2 2.30998,-2 0.275,0 -0.31449,0.9 -1.30998,2 -0.99549,1.1 -2.03498,2 -2.30998,2 -0.275,0 0.31449,-0.9 1.30998,-2 z m 6,-6 c 0.99549,-1.1 2.03498,-2 2.30998,-2 0.275,0 -0.31449,0.9 -1.30998,2 -0.99549,1.1 -2.03498,2 -2.30998,2 -0.275,0 0.31449,-0.9 1.30998,-2 z m 7,-7 c 0.99549,-1.1 2.03498,-2 2.30998,-2 0.275,0 -0.31449,0.9 -1.30998,2 -0.99549,1.1 -2.03498,2 -2.30998,2 -0.275,0 0.31449,-0.9 1.30998,-2 z M 8.7139654,73.985796 c 0.2900963,-1.10933 0.8811634,-2.235572 1.3134826,-2.50276 0.432319,-0.267188 0.548683,0.421838 0.258587,1.531168 -0.2900967,1.10933 -0.8811638,2.235572 -1.3134829,2.50276 -0.432319,0.267188 -0.548683,-0.421838 -0.2585867,-1.531168 z M 336,68.5 c 1.29175,-1.375 2.57363,-2.5 2.84863,-2.5 0.275,0 -0.55688,1.125 -1.84863,2.5 -1.29175,1.375 -2.57363,2.5 -2.84863,2.5 -0.275,0 0.55688,-1.125 1.84863,-2.5 z M 15.430086,55.5 c 0.391292,-1.65 1.141824,-3.439728 1.66785,-3.977174 0.526026,-0.537445 0.427378,0.587555 -0.219219,2.5 -1.513919,4.477732 -2.366332,5.34694 -1.448631,1.477174 z M 22,36.559017 c 0,-0.792541 0.408034,-1.693162 0.906741,-2.00138 0.498708,-0.308218 0.671224,0.340224 0.383369,1.440983 C 22.679497,38.333607 22,38.628767 22,36.559017 Z M 309.98025,28.25 300.5,18.5 l 9.75,9.48025 c 5.3625,5.214137 9.75,9.601637 9.75,9.75 0,0.724643 -1.21459,-0.424553 -10.01975,-9.48025 z M 90.75,26.276604 c 1.7875,-0.221826 4.7125,-0.221826 6.5,0 1.7875,0.221827 0.325,0.403322 -3.25,0.403322 -3.575,0 -5.0375,-0.181495 -3.25,-0.403322 z m 55.5,-0.02633 c 24.0625,-0.149214 63.4375,-0.149214 87.5,0 24.0625,0.149213 4.375,0.271297 -43.75,0.271297 -48.125,0 -67.8125,-0.122084 -43.75,-0.271297 z"
         id="path5" />
      <path
         style="fill:#a8eb2f"
         d="m 377,387.61658 c 0,-0.21089 1.11138,-0.59588 2.46974,-0.85555 1.35835,-0.25966 2.2318,-0.0871 1.94098,0.38343 C 380.89864,387.97302 377,388.39033 377,387.61658 Z m 23,-7.00959 c 0,-0.21616 0.69837,-0.661 1.55194,-0.98855 0.88992,-0.34149 1.29132,-0.17385 0.94098,0.39301 C 401.90566,380.96166 400,381.4169 400,380.60699 Z m -188.92105,-7.19032 c 0.048,-1.16495 0.28494,-1.4019 0.60416,-0.60417 0.28887,0.72187 0.25335,1.58438 -0.0789,1.91667 -0.3323,0.33229 -0.56864,-0.25834 -0.52522,-1.3125 z M 416,373.60699 c 0,-0.21616 0.69837,-0.661 1.55194,-0.98855 0.88992,-0.34149 1.29132,-0.17385 0.94098,0.39301 C 417.90566,373.96166 416,374.4169 416,373.60699 Z m 10.73333,-5.73108 c 0.67834,-0.68342 1.48524,-0.99067 1.79313,-0.68278 0.30789,0.30789 -0.24711,0.86705 -1.23333,1.24258 -1.4252,0.54268 -1.54006,0.42782 -0.5598,-0.5598 z M 446,355.62244 c 0,-0.20765 0.7875,-0.99515 1.75,-1.75 1.58606,-1.24387 1.62143,-1.2085 0.37756,0.37756 C 446.82119,355.91575 446,356.44548 446,355.62244 Z M 456.5,346 c 0.99549,-1.1 2.03498,-2 2.30998,-2 0.275,0 -0.31449,0.9 -1.30998,2 -0.99549,1.1 -2.03498,2 -2.30998,2 -0.275,0 0.31449,-0.9 1.30998,-2 z m 6.5,-5.37756 c 0,-0.20765 0.7875,-0.99515 1.75,-1.75 1.58606,-1.24387 1.62143,-1.2085 0.37756,0.37756 C 463.82119,340.91575 463,341.44548 463,340.62244 Z m 7,-8 c 0,-0.20765 0.7875,-0.99515 1.75,-1.75 1.58606,-1.24387 1.62143,-1.2085 0.37756,0.37756 C 470.82119,332.91575 470,333.44548 470,332.62244 Z m -114.75631,-8.19947 c 0.32883,-0.32882 2.26353,-0.97353 4.29935,-1.43268 2.03582,-0.45915 3.30897,-0.47931 2.82922,-0.0448 -1.01361,0.91805 -8.02163,2.37054 -7.12857,1.47747 z M 478,323.62244 c 0,-0.20765 0.7875,-0.99515 1.75,-1.75 1.58606,-1.24387 1.62143,-1.2085 0.37756,0.37756 C 478.82119,323.91575 478,324.44548 478,323.62244 Z m -101,-5.05207 c 0,-0.275 0.9,-0.98167 2,-1.57037 1.1,-0.5887 2,-0.84537 2,-0.57037 0,0.275 -0.9,0.98167 -2,1.57037 -1.1,0.5887 -2,0.84537 -2,0.57037 z m 115,-14.51135 c 0,-0.51754 0.44485,-1.21592 0.98855,-1.55194 0.56686,-0.35034 0.7345,0.0511 0.39301,0.94098 C 492.71677,305.18048 492,305.49745 492,304.05902 Z m 6.56429,-12.35215 c 0.37553,-0.98622 0.93469,-1.54122 1.24258,-1.23333 0.30789,0.30789 6.4e-4,1.11479 -0.68278,1.79313 -0.98762,0.98026 -1.10248,0.8654 -0.5598,-0.5598 z M 364.8125,288.31689 c 0.72187,-0.28887 1.58438,-0.25335 1.91667,0.0789 0.33229,0.33229 -0.25834,0.56864 -1.3125,0.52522 -1.16495,-0.048 -1.4019,-0.28494 -0.60417,-0.60416 z m 14,-7 c 0.72187,-0.28887 1.58438,-0.25335 1.91667,0.0789 0.33229,0.33229 -0.25834,0.56864 -1.3125,0.52522 -1.16495,-0.048 -1.4019,-0.28494 -0.60417,-0.60416 z m -22.32946,-3.28944 c 0.26718,-0.43232 1.39343,-1.02339 2.50276,-1.31348 1.10933,-0.2901 1.79835,-0.17374 1.53116,0.25858 -0.26718,0.43232 -1.39343,1.02339 -2.50276,1.31348 -1.10933,0.2901 -1.79835,0.17374 -1.53116,-0.25858 z m 31.25029,-3.15154 c 0.67834,-0.68342 1.48524,-0.99067 1.79313,-0.68278 0.30789,0.30789 -0.24711,0.86705 -1.23333,1.24258 -1.4252,0.54268 -1.54006,0.42782 -0.5598,-0.5598 z m -17,-3 c 0.67834,-0.68342 1.48524,-0.99067 1.79313,-0.68278 0.30789,0.30789 -0.24711,0.86705 -1.23333,1.24258 -1.4252,0.54268 -1.54006,0.42782 -0.5598,-0.5598 z M 380.5,265 c 0.99549,-1.1 2.03498,-2 2.30998,-2 0.275,0 -0.31449,0.9 -1.30998,2 -0.99549,1.1 -2.03498,2 -2.30998,2 -0.275,0 0.31449,-0.9 1.30998,-2 z m 17.47019,0.0557 c 0.57231,-1.06937 1.53482,-2.24977 2.13891,-2.62312 0.6041,-0.37335 0.32492,0.50159 -0.62038,1.94431 -2.00162,3.05486 -3.03812,3.51819 -1.51853,0.67881 z M 435,266.05902 c 0,-0.51754 0.44485,-1.21592 0.98855,-1.55194 0.56686,-0.35034 0.7345,0.0511 0.39301,0.94098 C 435.71677,267.18048 435,267.49745 435,266.05902 Z m -48,-7.43658 c 0,-0.20765 0.7875,-0.99515 1.75,-1.75 1.58606,-1.24387 1.62143,-1.2085 0.37756,0.37756 C 387.82119,258.91575 387,259.44548 387,258.62244 Z m 54.73121,-8.7026 c 0.35361,-1.3522 0.8069,-1.8055 1.05655,-1.05655 0.24048,0.72144 -0.0382,1.78716 -0.61931,2.36826 -0.74207,0.74207 -0.87221,0.35164 -0.43724,-1.31171 z m 71.34774,0.49683 c 0.048,-1.16495 0.28494,-1.4019 0.60416,-0.60417 0.28887,0.72187 0.25335,1.58437 -0.0789,1.91667 -0.33229,0.33229 -0.56864,-0.25834 -0.52522,-1.3125 z M 395,248.05902 c 0,-0.51754 0.44485,-1.21592 0.98855,-1.55194 0.56686,-0.35034 0.7345,0.0511 0.39301,0.94098 C 395.71677,249.18048 395,249.49745 395,248.05902 Z m 16.73121,-7.13918 c 0.35361,-1.3522 0.8069,-1.8055 1.05655,-1.05655 0.24048,0.72144 -0.0382,1.78716 -0.61931,2.36826 -0.74207,0.74207 -0.87221,0.35164 -0.43724,-1.31171 z M 448.20774,225 c -0.0327,-1.925 0.30083,-5.525 0.74122,-8 1.08161,-6.07868 1.16687,-0.36855 0.0971,6.5 -0.63681,4.08851 -0.78963,4.36196 -0.83827,1.5 z m -120.3353,-2.75 c -1.24387,-1.58606 -1.2085,-1.62143 0.37756,-0.37756 1.66575,1.30637 2.19548,2.12756 1.37244,2.12756 -0.20765,0 -0.99515,-0.7875 -1.75,-1.75 z M 347,222.62244 c 0,-0.20765 0.7875,-0.99515 1.75,-1.75 1.58606,-1.24387 1.62143,-1.2085 0.37756,0.37756 C 347.82119,222.91575 347,223.44548 347,222.62244 Z M 321.40499,215.75 319.5,213.5 l 2.25,1.90499 c 1.2375,1.04774 2.25,2.06024 2.25,2.25 0,0.80025 -0.80479,0.20945 -2.59501,-1.90499 z m 11.46745,-4.5 c -1.24387,-1.58606 -1.2085,-1.62143 0.37756,-0.37756 1.66575,1.30637 2.19548,2.12756 1.37244,2.12756 -0.20765,0 -0.99515,-0.7875 -1.75,-1.75 z m 115.60714,-9.59605 c -0.38304,-3.57684 -0.49771,-7.09956 -0.25481,-7.82826 0.2429,-0.72869 0.75095,2.00317 1.12899,6.07081 0.37805,4.06764 0.49272,7.59036 0.25482,7.82826 -0.2379,0.2379 -0.74595,-2.49397 -1.129,-6.07081 z M 326.87244,205.25 c -1.24387,-1.58606 -1.2085,-1.62143 0.37756,-0.37756 1.66575,1.30637 2.19548,2.12756 1.37244,2.12756 -0.20765,0 -0.99515,-0.7875 -1.75,-1.75 z M 347,206.62244 c 0,-0.20765 0.7875,-0.99515 1.75,-1.75 1.58606,-1.24387 1.62143,-1.2085 0.37756,0.37756 C 347.82119,206.91575 347,207.44548 347,206.62244 Z M 370,200.5 c 1.29175,-1.375 2.57363,-2.5 2.84863,-2.5 0.275,0 -0.55688,1.125 -1.84863,2.5 -1.29175,1.375 -2.57363,2.5 -2.84863,2.5 -0.275,0 0.55688,-1.125 1.84863,-2.5 z m 6.87919,-6.70197 c 1.51825,-1.72423 2.18526,-3.44357 1.84326,-4.75138 -0.29476,-1.12718 -0.1279,-1.79723 0.37081,-1.48901 1.743,1.07723 0.88438,4.11344 -1.84326,6.51805 L 374.5,196.5 Z m 24.6851,-4.5049 c -0.54268,-1.4252 -0.42782,-1.54006 0.5598,-0.5598 0.68342,0.67834 0.99067,1.48524 0.68278,1.79313 -0.30789,0.30789 -0.86705,-0.24711 -1.24258,-1.23333 z m 40,-18 c -0.54268,-1.4252 -0.42782,-1.54006 0.5598,-0.5598 0.68342,0.67834 0.99067,1.48524 0.68278,1.79313 -0.30789,0.30789 -0.86705,-0.24711 -1.24258,-1.23333 z M 405,168 c -0.5887,-1.1 -0.84537,-2 -0.57037,-2 0.275,0 0.98167,0.9 1.57037,2 0.5887,1.1 0.84537,2 0.57037,2 -0.275,0 -0.98167,-0.9 -1.57037,-2 z m 107.88116,-1.78142 c -0.32944,-1.98722 -0.18269,-2.92011 0.37209,-2.36533 0.50384,0.50384 0.74864,1.98048 0.544,3.28141 -0.31488,2.00169 -0.45573,1.86084 -0.91609,-0.91608 z M 380,156.91065 c -2.15377,-1.76168 -2.1961,-1.89635 -0.30569,-0.97239 1.20687,0.58987 2.47092,1.52008 2.80901,2.06712 0.90258,1.4604 0.29641,1.19531 -2.50332,-1.09473 z M 392.40499,151.75 390.5,149.5 l 2.25,1.90499 c 2.11444,1.79022 2.70524,2.59501 1.90499,2.59501 -0.18976,0 -1.20226,-1.0125 -2.25,-2.25 z m -23.89791,-2.73855 c -0.35034,-0.56686 0.0511,-0.7345 0.94098,-0.39301 1.73242,0.66479 2.04939,1.38156 0.61096,1.38156 -0.51754,0 -1.21592,-0.44485 -1.55194,-0.98855 z m 59.59331,-4.30693 c -1.26492,-2.10631 -1.24361,-2.12762 0.47833,-0.47833 0.99123,0.94941 1.58698,1.94144 1.3239,2.20452 -0.26308,0.26308 -1.07408,-0.5137 -1.80223,-1.72619 z m 77.63082,-1.62436 c -0.43497,-1.66335 -0.30483,-2.05378 0.43724,-1.31171 0.5811,0.5811 0.85979,1.64682 0.61931,2.36826 -0.24965,0.74895 -0.70294,0.29565 -1.05655,-1.05655 z m -153.14193,0.0643 c -0.29082,-0.47055 0.58263,-0.64309 1.94098,-0.38343 1.35836,0.25967 2.46974,0.64466 2.46974,0.85555 0,0.77375 -3.89864,0.35644 -4.41072,-0.47212 z M 377,140 c -0.90129,-0.58246 -1.02463,-0.97549 -0.30902,-0.98469 0.65504,-0.008 1.4691,0.43469 1.80902,0.98469 0.7673,1.24153 0.42112,1.24153 -1.5,0 z m 122.07895,-13.58333 c 0.048,-1.16495 0.28494,-1.4019 0.60416,-0.60417 0.28887,0.72187 0.25335,1.58438 -0.0789,1.91667 -0.33229,0.33229 -0.56864,-0.25834 -0.52522,-1.3125 z M 390.50708,110.01145 c -0.35034,-0.56686 0.0511,-0.7345 0.94098,-0.39301 1.73242,0.66479 2.04939,1.38156 0.61096,1.38156 -0.51754,0 -1.21592,-0.44485 -1.55194,-0.98855 z m 94.9518,-6.07798 c -0.36253,-0.58659 -0.44468,-1.281 -0.18255,-1.54313 0.26212,-0.26213 0.74306,0.21781 1.06875,1.06653 0.67618,1.76211 0.0999,2.07206 -0.8862,0.4766 z M 350.5,98 l -6,-0.663785 5.69098,-0.168107 C 353.32102,97.075648 356.16008,97.45 356.5,98 c 0.33992,0.55 0.47898,0.924352 0.30902,0.831892 C 356.63906,98.739433 353.8,98.365082 350.5,98 Z M 341,96.622445 c 0,-0.207656 0.6,-0.875511 1.33333,-1.484124 1.00925,-0.837602 1.33334,-0.745832 1.33334,0.377555 0,0.816268 -0.6,1.484124 -1.33334,1.484124 C 341.6,97 341,96.8301 341,96.622445 Z M 458.50708,73.011454 c -0.35034,-0.56686 0.0511,-0.734507 0.94098,-0.393011 C 461.18048,73.283234 461.49745,74 460.05902,74 c -0.51754,0 -1.21592,-0.444846 -1.55194,-0.988546 z m -25,-19 c -0.35034,-0.56686 0.0511,-0.734507 0.94098,-0.393011 C 436.18048,54.283234 436.49745,55 435.05902,55 c -0.51754,0 -1.21592,-0.444846 -1.55194,-0.988546 z m -71.0482,-4.077985 c -0.36253,-0.586592 -0.44468,-1.281 -0.18255,-1.543128 0.26212,-0.262129 0.74306,0.21781 1.06875,1.066531 0.67618,1.762107 0.0999,2.072058 -0.8862,0.476597 z M 423,48 c -0.90129,-0.58246 -1.02463,-0.975486 -0.30902,-0.984687 0.65504,-0.0084 1.4691,0.434687 1.80902,0.984687 0.7673,1.241525 0.42112,1.241525 -1.5,0 z M 356.40499,42.75 354.5,40.5 l 2.25,1.904988 c 1.2375,1.047743 2.25,2.060243 2.25,2.25 0,0.800253 -0.80479,0.209457 -2.59501,-1.904988 z m 51.03614,-2.305166 c -1.86402,-1.493392 -1.85176,-1.511856 0.30887,-0.464816 1.2375,0.599692 2.25,1.299517 2.25,1.555166 0,0.76522 -0.51861,0.544238 -2.55887,-1.09035 z M 389.8125,34.316886 c 0.72187,-0.288871 1.58438,-0.253344 1.91667,0.07895 0.33229,0.332292 -0.25834,0.568641 -1.3125,0.52522 -1.16495,-0.04798 -1.4019,-0.284941 -0.60417,-0.604167 z m -46.70666,-5.689358 c -0.9503,-1.145036 0.39654,-1.395413 8.12755,-1.510908 5.09664,-0.07614 9.78758,0.203973 10.42431,0.622472 0.63674,0.418499 -3.13032,0.603111 -8.37123,0.410247 -6.75604,-0.24862 -9.33098,-0.03037 -8.84868,0.75 0.96321,1.558509 0.0288,1.36783 -1.33195,-0.271811 z"
         id="path4" />
      <path
         style="fill:#99e713"
         d="M 211.65865,376.89913 C 211.29639,368.52972 211,306.85356 211,239.84101 V 118 h 33.5 33.5 v 104 104 h 34.55845 c 31.81915,0 47.15418,-0.90246 49.94155,-2.93902 0.55,-0.40186 4.15,-1.55793 8,-2.56905 3.85,-1.01112 9.03475,-2.85752 11.52166,-4.1031 2.48692,-1.24559 5.74942,-2.73149 7.25,-3.30202 1.50059,-0.57052 2.72834,-1.525 2.72834,-2.12108 0,-0.59607 0.45,-0.80565 1,-0.46573 0.55,0.33992 1,0.14148 1,-0.44098 0,-0.58246 0.56901,-1.05902 1.26447,-1.05902 0.69546,0 4.04521,-2.25 7.44389,-5 3.39868,-2.75 6.37936,-5 6.62373,-5 C 411.67794,299 433,273.37217 433,270.5526 c 0,-0.68562 0.9,-2.28429 2,-3.5526 1.1,-1.26831 2,-2.62996 2,-3.02589 0,-0.39593 0.99352,-2.91458 2.20782,-5.59699 1.2143,-2.68242 2.2645,-5.10212 2.33379,-5.37712 0.0693,-0.275 0.5952,-1.625 1.16869,-3 0.57349,-1.375 1.80134,-5.875 2.72856,-10 0.92721,-4.125 2.22029,-9.3 2.87349,-11.5 1.61713,-5.44649 1.53272,-34.05493 -0.10531,-35.69296 C 447.54317,192.14317 447,190.64975 447,189.48834 c 0,-2.68661 -3.89449,-17.63736 -4.94357,-18.97815 -0.43473,-0.5556 -1.78462,-3.71019 -2.99975,-7.01019 -1.21513,-3.3 -2.79756,-6.675 -3.51649,-7.5 -0.71894,-0.825 -2.31894,-3.5109 -3.55556,-5.96867 -2.83909,-5.64267 -11.06369,-15.98155 -18.08008,-22.72785 C 406.7685,120.44211 397.11367,113 395.3483,113 c -0.77609,0 -1.65522,-0.63624 -1.95362,-1.41386 -0.2984,-0.77763 -3.09678,-2.4262 -6.21862,-3.6635 -3.12183,-1.2373 -6.23856,-2.68116 -6.92606,-3.20858 -0.6875,-0.52742 -1.25689,-0.56635 -1.26531,-0.0865 -0.008,0.47984 -0.36719,0.3185 -0.79727,-0.35854 -0.80919,-1.27388 -15.01275,-5.226578 -18.8784,-5.253667 C 358.10398,99.006909 356.83992,98.55 356.5,98 c -0.33992,-0.55 -3.26492,-1 -6.5,-1 -3.23508,0 -6.16713,-0.461398 -6.51565,-1.025329 -0.34853,-0.563931 0.97491,-2.633931 2.94098,-4.6 C 348.3914,89.408602 350,87.572883 350,87.295295 350,87.017707 355.175,81.389022 361.5,74.787106 367.825,68.18519 373,62.202308 373,61.491811 373,60.182281 370.27862,57.130458 354.99883,41.304848 350.32318,36.462182 345.774,31.375 344.88953,30 l -1.60813,-2.5 11.1093,0.665723 c 11.673,0.699502 28.79636,3.328835 31.66015,4.861492 0.9274,0.496329 1.97035,0.61825 2.31767,0.270935 C 388.71583,32.950834 389,33.120058 389,33.674204 c 0,0.554145 2.5875,1.580341 5.75,2.280435 3.1625,0.700094 7.55,2.144077 9.75,3.208851 2.2,1.064773 6.925,3.106474 10.5,4.537113 3.575,1.430639 6.725,2.922814 7,3.315945 0.275,0.393131 2.3,1.628367 4.5,2.744968 3.79113,1.924174 12.64951,7.541156 17,10.779476 10.1014,7.519052 14.4379,11.323147 23.75,20.834114 C 473.1625,87.413874 478,92.949881 478,93.677342 478,94.404804 478.45416,95 479.00924,95 c 0.55509,0 2.39369,2.25 4.08578,5 1.69209,2.75 3.37543,5.007 3.74075,5.01555 0.36533,0.009 1.76528,2.25855 3.11101,5 1.34572,2.74145 2.72548,4.98445 3.06613,4.98445 0.34064,0 1.93959,2.8125 3.55322,6.25 1.61363,3.4375 3.19511,6.475 3.5144,6.75 0.31929,0.275 1.86919,4.1 3.44421,8.5 1.57503,4.4 3.14838,8.225 3.49635,8.5 0.34796,0.275 1.87485,5.45 3.39308,11.5 1.51824,6.05 3.12192,11.70257 3.56373,12.56126 4.56433,8.871 4.3827,73.8554 -0.2227,79.67601 -0.53842,0.68049 -0.71773,1.91799 -0.39846,2.75 0.31927,0.832 0.25302,1.51273 -0.14721,1.51273 -0.40024,0 -1.55701,3.7125 -2.57061,8.25 -1.0136,4.5375 -2.68066,10.10192 -3.70458,12.36539 -1.02393,2.26346 -2.84492,6.76346 -4.04665,10 -1.20173,3.23653 -2.50394,6.10961 -2.8938,6.38461 -0.38985,0.275 -1.81048,2.75 -3.15695,5.5 -4.69492,9.58882 -16.95133,27.29647 -24.57145,35.5 -8.5732,9.22958 -17.23568,17.17358 -26.26549,24.08699 -3.575,2.73709 -7.4,5.67608 -8.5,6.53109 -1.1,0.85501 -2.94804,1.93008 -4.10675,2.38903 -1.15871,0.45895 -4.53371,2.38254 -7.5,4.27463 -2.96629,1.8921 -6.40575,3.75807 -7.64325,4.14661 -1.2375,0.38853 -2.25,1.2011 -2.25,1.8057 0,0.60461 -0.2961,0.80319 -0.65799,0.44129 -0.3619,-0.36189 -1.1494,-0.27174 -1.75,0.20033 -0.60061,0.47208 -3.78655,1.8519 -7.07987,3.06628 -3.29332,1.21438 -6.44332,2.58201 -7,3.03918 -0.55668,0.45716 -5.51214,2.02185 -11.01214,3.47708 -5.5,1.45523 -10.9,3.0577 -12,3.56104 -6.09979,2.79117 -19.16241,3.32548 -90.59135,3.70549 l -73.59136,0.39152 z M 331,287 v -6 l 7.25,-0.0174 c 7.3187,-0.0175 20.01467,-2.19385 22.11312,-3.79058 0.62529,-0.47579 3.72438,-1.8909 6.88688,-3.14471 3.1625,-1.2538 5.75,-2.64705 5.75,-3.09611 0,-0.44905 0.93573,-1.11345 2.07941,-1.47644 3.03949,-0.9647 15.22991,-12.7771 17.46051,-16.91906 1.05319,-1.95566 2.21029,-3.55574 2.57134,-3.55574 0.36105,0 1.68229,-2.5875 2.93609,-5.75 1.25381,-3.1625 2.71117,-6.3125 3.23859,-7 0.52742,-0.6875 0.62375,-1.25 0.21406,-1.25 -0.40969,0 -0.28137,-0.5625 0.28516,-1.25 4.33837,-5.26475 4.21297,-36.79592 -0.18394,-46.25 -0.76738,-1.65 -2.41851,-5.3625 -3.66917,-8.25 -1.25066,-2.8875 -2.56366,-5.25 -2.91778,-5.25 -0.35411,0 -1.40152,-1.58887 -2.32757,-3.53082 -0.92605,-1.94194 -2.3594,-3.79009 -3.18522,-4.10698 C 388.67567,166.0453 388,165.20087 388,164.48568 c 0,-1.71932 -9.62619,-10.33257 -13.75,-12.30311 -1.7875,-0.85415 -3.25,-1.86478 -3.25,-2.24586 0,-0.38107 -2.8125,-1.72102 -6.25,-2.97766 -3.4375,-1.25665 -6.7,-2.61994 -7.25,-3.02954 C 355.74186,142.62018 344.85575,141 337.81634,141 H 331 v -6.13727 -6.13727 l 11.75,0.50025 c 7.44692,0.31705 13.12332,1.08107 15.5,2.08624 2.0625,0.8723 3.75689,1.27146 3.76531,0.88702 0.008,-0.38443 0.34592,-0.22048 0.75,0.36434 0.40408,0.58482 3.54719,2.10219 6.98469,3.37193 3.4375,1.26973 6.25,2.64915 6.25,3.06536 0,0.41622 1.4625,1.3596 3.25,2.09641 4.71503,1.94353 20.49753,17.51743 23.96981,23.65299 1.63411,2.8875 3.28926,5.25 3.6781,5.25 0.38885,0 1.53449,2.3625 2.54586,5.25 1.01136,2.8875 2.68719,7.16401 3.72406,9.50335 1.03687,2.33935 2.37072,6.61435 2.96413,9.5 1.52659,7.42362 1.2558,29.10689 -0.44641,35.74665 -0.77552,3.025 -1.58452,6.175 -1.79779,7 -0.21327,0.825 -0.64125,1.725 -0.95107,2 -0.30982,0.275 -1.60219,3.3125 -2.87193,6.75 -1.26973,3.4375 -2.77874,6.25 -3.35335,6.25 -0.57461,0 -0.77179,0.27295 -0.43819,0.60656 0.33361,0.3336 0.18777,1.1211 -0.32409,1.75 -0.51185,0.62889 -3.38572,4.45268 -6.38638,8.4973 -3.00065,4.04462 -6.74378,8.31962 -8.31806,9.5 -1.57428,1.18038 -3.93289,3.15834 -5.24135,4.39547 -1.30846,1.23713 -3.64449,2.80948 -5.19118,3.49411 -1.54669,0.68463 -2.81216,1.5343 -2.81216,1.88815 0,0.35386 -3.0375,1.90262 -6.75,3.44171 -3.7125,1.53908 -7.2,3.12448 -7.75,3.52311 C 361.34582,290.65773 346.67035,293 339.04216,293 H 331 Z m -3.87059,-66.37015 c -8.99275,-9.02345 -10.24848,-10.68935 -9.6142,-12.75447 2.08544,-6.7899 5.4404,-6.49932 12.98479,1.12462 3.26557,3.3 6.43229,6 7.03715,6 0.60487,0 7.89071,-6.525 16.19075,-14.5 8.30004,-7.975 15.58173,-14.5 16.18154,-14.5 0.59981,0 1.09056,-0.45 1.09056,-1 0,-0.55 0.95972,-1 2.1327,-1 2.44852,0 5.8673,3.49801 5.8673,6.00326 0,2.10431 -37.42341,39.4208 -40.86797,40.75121 -0.36237,0.13996 -5.31355,-4.41612 -11.00262,-10.12462 z"
         id="path3" />
      <path
         style="fill:#006fda"
         d="M 119.75328,243.25 119.5,94.5 61.14612,94.241899 C 15.166871,94.03853 2.8915218,93.720438 3.2604135,92.741899 3.517909,92.058854 4.5071895,88.8 5.4588147,85.5 6.4104399,82.2 7.6516079,78.9375 8.2169659,78.25 8.7823238,77.5625 8.9096892,77 8.5,77 8.0903108,77 8.2132538,76.4375 8.7732066,75.75 9.3331593,75.0625 10.785216,71.125 12,67 c 1.214784,-4.125 2.551666,-7.95 2.970849,-8.5 0.419183,-0.55 1.987261,-4.825 3.484617,-9.5 1.497356,-4.675 3.31484,-9.85 4.038853,-11.5 0.724013,-1.65 1.863096,-4.855385 2.531295,-7.123079 l 1.214908,-4.123079 127.629738,0.457334 c 70.19636,0.251533 128.41724,0.146274 129.37974,-0.23391 1.52567,-0.602633 1.75184,-2.183756 1.76436,-12.334255 L 285.02871,2.5 l 8.69789,9 c 4.78384,4.95 17.60238,18.051455 28.48565,29.114344 C 333.09551,51.677233 342,61.208154 342,61.794169 c 0,0.586014 -6.1875,7.320702 -13.75,14.965972 -7.5625,7.645271 -19.97561,20.50185 -27.58468,28.570179 C 293.05624,113.39864 286.41874,120 285.91532,120 285.40847,120 285,114.19437 285,106.9904 V 93.980792 L 236.75,94.240396 188.5,94.5 188.24672,243.25 187.99344,392 H 154 120.00656 Z"
         id="path2" />
    </g>
  </g>
</svg>
