<?xml version="1.0" encoding="UTF-8" standalone="no"?>
<!-- Created with Inkscape (http://www.inkscape.org/) -->

<svg
   version="1.1"
   id="svg1"
   width="173.09091"
   height="50.618183"
   viewBox="0 0 173.09091 50.618183"
   sodipodi:docname="logo horitonzal.svg"
   inkscape:version="1.4.2 (f4327f4, 2025-05-13)"
   xmlns:inkscape="http://www.inkscape.org/namespaces/inkscape"
   xmlns:sodipodi="http://sodipodi.sourceforge.net/DTD/sodipodi-0.dtd"
   xmlns="http://www.w3.org/2000/svg"
   xmlns:svg="http://www.w3.org/2000/svg">
  <defs
     id="defs1" />
  <sodipodi:namedview
     id="namedview1"
     pagecolor="#ffffff"
     bordercolor="#000000"
     borderopacity="0.25"
     inkscape:showpageshadow="2"
     inkscape:pageopacity="0.0"
     inkscape:pagecheckerboard="0"
     inkscape:deskcolor="#d1d1d1"
     showgrid="false"
     inkscape:zoom="7.8513654"
     inkscape:cx="133.7347"
     inkscape:cy="29.994783"
     inkscape:window-width="3440"
     inkscape:window-height="1369"
     inkscape:window-x="-8"
     inkscape:window-y="-8"
     inkscape:window-maximized="1"
     inkscape:current-layer="g1" />
  <g
     inkscape:groupmode="layer"
     inkscape:label="Image"
     id="g1">
    <g
       id="g2"
       transform="translate(9.6798447,3.8209913)">
      <path
         style="fill:#9ce818"
         d="m 13.812813,32.624934 c -0.07705,-0.07705 -0.140086,-4.110994 -0.140086,-8.964327 v -8.824243 h 2.181819 2.181818 v 6.716648 6.716647 l 3.149811,-0.09847 c 2.868249,-0.08966 3.258516,-0.17048 4.365875,-0.904075 2.648157,-1.754332 3.95095,-4.893961 3.278188,-7.90018 -0.633943,-2.832756 -3.043309,-5.277517 -5.529789,-5.611024 L 22.122931,13.597976 23.120426,12.398988 24.11792,11.2 23.040779,10.071583 21.963637,8.943166 23.513361,9.1150814 c 1.803399,0.2000564 4.282255,1.2649866 5.868014,2.5209306 1.367971,1.083453 2.952377,3.447513 3.593151,5.361265 0.680817,2.033346 0.636989,5.84338 -0.09104,7.914769 -1.15052,3.273434 -4.150552,6.173759 -7.437924,7.19072 -1.379467,0.426744 -11.283595,0.871318 -11.632744,0.522168 z m 7.71446,-6.702993 c 0,-0.410909 0.288928,-0.574995 1.236189,-0.70205 0.918363,-0.123178 1.47479,-0.426167 2.164235,-1.178482 2.333919,-2.546746 1.162473,-6.544265 -2.181632,-7.444739 -1.422289,-0.382982 -1.610817,-0.887579 -0.331618,-0.887579 1.100586,0 2.220089,0.569036 3.239774,1.646756 2.927818,3.094455 1.142812,8.100565 -3.181493,8.922606 -0.789732,0.150127 -0.945455,0.09141 -0.945455,-0.356512 z m -0.391276,-4.344847 c -0.519616,-0.574169 -0.638766,-1.213457 -0.226162,-1.213457 0.140408,0 0.42326,0.202393 0.628558,0.449762 0.328208,0.395467 0.504933,0.321197 1.463906,-0.615216 1.616001,-1.577982 2.113124,-0.979337 0.527982,0.635805 -1.39351,1.419883 -1.696661,1.513971 -2.394284,0.743106 z"
         id="path4" />
      <path
         style="fill:#0070db"
         d="m 7.8545456,22.981819 v -9.6 H 4.0727273 c -2.8395202,0 -3.77807837,-0.09061 -3.76680874,-0.363637 0.008255,-0.2 0.31573853,-1.149091 0.68329626,-2.109091 L 1.6575016,9.1636366 9.9923873,9.0864481 18.327273,9.0092597 V 8.2164144 c 0,-0.7476614 0.111753,-0.6810922 1.960943,1.1680976 l 1.960943,1.960943 -1.960943,1.960943 -1.960943,1.960942 v -0.942761 -0.94276 h -3.054545 -3.054546 v 9.6 9.6 H 10.036364 7.8545456 Z M 113.57811,24.436364 c 0,-3.44 0.0421,-4.847273 0.0935,-3.127273 0.0514,1.720001 0.0514,4.534546 0,6.254546 -0.0514,1.72 -0.0935,0.312727 -0.0935,-3.127273 z m -16.909115,4.072728 c 0,-0.88 0.05454,-1.24 0.12119,-0.8 0.06665,0.44 0.06665,1.16 0,1.6 -0.06665,0.44 -0.12119,0.08 -0.12119,-0.8 z M 103.8,29.183095 c 0.21,-0.08404 0.46091,-0.0737 0.55758,0.02297 0.0967,0.09667 -0.0751,0.165423 -0.38182,0.152791 -0.33889,-0.01396 -0.40783,-0.08289 -0.17576,-0.175757 z M 73.622968,27.175758 c 0.01396,-0.338892 0.08289,-0.407825 0.175757,-0.175757 0.08404,0.21 0.0737,0.460909 -0.02297,0.557575 -0.09667,0.09667 -0.165423,-0.07515 -0.152791,-0.381818 z m 3.490909,-0.581818 c 0.01396,-0.338892 0.08289,-0.407825 0.175757,-0.175757 0.08404,0.21 0.0737,0.460909 -0.02297,0.557575 -0.09667,0.09667 -0.165423,-0.07515 -0.152791,-0.381818 z m 9.650396,-1.721212 c 0.0032,-0.64 0.0628,-0.867565 0.132386,-0.505699 0.06958,0.361865 0.06694,0.885502 -0.0059,1.163636 -0.07281,0.278135 -0.129744,-0.01794 -0.126515,-0.657937 z M 100.437,24.581819 c 0.003,-0.64 0.0628,-0.867565 0.13239,-0.505699 0.0696,0.361865 0.0669,0.885502 -0.006,1.163636 -0.0728,0.278135 -0.12975,-0.01794 -0.12652,-0.657937 z m 20.07273,0 c 0.003,-0.64 0.0628,-0.867565 0.13238,-0.505699 0.0696,0.361865 0.0669,0.885502 -0.006,1.163636 -0.0728,0.278135 -0.12974,-0.01794 -0.12651,-0.657937 z M 90.54022,24.436364 c 0,-0.56 0.05987,-0.789091 0.13304,-0.509091 0.07317,0.28 0.07317,0.738182 0,1.018182 -0.07317,0.28 -0.13304,0.05091 -0.13304,-0.509091 z m 6.037497,-4.277494 c -0.07774,-0.992622 -0.03568,-1.698587 0.09347,-1.568812 0.129154,0.129776 0.192762,0.941922 0.141352,1.804768 l -0.09347,1.568811 z m -59.559535,0.876963 c 0.28,-0.07317 0.738182,-0.07317 1.018182,0 0.28,0.07317 0.05091,0.133039 -0.509091,0.133039 -0.56,0 -0.789091,-0.05987 -0.509091,-0.133039 z m 6.113091,-0.0082 c 0.4422,-0.06687 1.096746,-0.06508 1.454546,0.004 0.3578,0.06905 -0.004,0.12376 -0.804,0.121576 -0.8,-0.0022 -1.092746,-0.05868 -0.650546,-0.125547 z m 21.523273,0.0082 c 0.28,-0.07317 0.738182,-0.07317 1.018182,0 0.28,0.07317 0.05091,0.133039 -0.509091,0.133039 -0.56,0 -0.789091,-0.05987 -0.509091,-0.133039 z m 6.113091,-0.0082 c 0.4422,-0.06687 1.096746,-0.06508 1.454546,0.004 0.3578,0.06905 -0.004,0.12376 -0.804,0.121576 -0.8,-0.0022 -1.092746,-0.05868 -0.650546,-0.125547 z m 72.014183,-1.444518 c 0.21,-0.08404 0.46091,-0.0737 0.55758,0.02297 0.0967,0.09667 -0.0752,0.165423 -0.38182,0.152791 -0.33889,-0.01396 -0.40783,-0.08289 -0.17576,-0.175757 z"
         id="path3" />
      <path
         style="fill:#102a43"
         d="m 40.581819,30.423253 c -1.477851,-0.660986 -1.72896,-1.398505 -1.889834,-5.550525 l -0.14653,-3.781818 -0.945454,-0.09116 c -0.910902,-0.08783 -0.945455,-0.138329 -0.945455,-1.381818 0,-1.2811 0.0075,-1.29066 1.018182,-1.29066 1.011569,0 1.018182,-0.0084 1.018182,-1.298539 v -1.29854 l 1.818182,-0.559239 1.818181,-0.55924 0.08602,1.857779 0.08602,1.857779 h 1.295799 1.2958 v 1.309091 1.309091 H 43.781821 42.47273 v 3.16438 c 0,3.524867 0.211441,3.980531 1.74279,3.755776 0.867345,-0.127299 0.875392,-0.115907 0.875392,1.239319 0,1.299207 -0.04559,1.376916 -0.909091,1.549616 -1.393244,0.278649 -2.638776,0.198626 -3.6,-0.231293 z m 16.657187,-8.33e-4 c -1.690785,-0.603447 -2.490231,-1.241263 -3.13161,-2.49847 -1.722261,-3.375911 -0.62803,-7.506311 2.397489,-9.049815 1.489436,-0.759854 4.146854,-1.027832 5.561794,-0.560859 1.048552,0.346053 1.060595,0.368127 1.060595,1.943963 0,1.589028 -0.002,1.592541 -0.646548,1.141075 -0.370636,-0.259603 -1.252059,-0.452859 -2.065454,-0.452859 -1.225781,0 -1.553532,0.134625 -2.407998,0.989091 -0.864487,0.864486 -0.989091,1.174723 -0.989091,2.462605 0,1.233343 0.147159,1.641119 0.902863,2.501818 0.779291,0.887564 1.079887,1.028304 2.196265,1.028304 0.711371,0 1.679628,-0.199725 2.151682,-0.443834 l 0.858281,-0.443834 v 1.572935 1.572936 l -1.292457,0.325444 c -1.683289,0.423857 -3.244484,0.393794 -4.595811,-0.0885 z m 10.979177,8.33e-4 c -1.477851,-0.660986 -1.72896,-1.398505 -1.889834,-5.550525 l -0.14653,-3.781818 -0.945454,-0.09116 c -0.910902,-0.08783 -0.945455,-0.138329 -0.945455,-1.381818 0,-1.2811 0.0075,-1.29066 1.018182,-1.29066 1.011569,0 1.018182,-0.0084 1.018182,-1.298539 v -1.29854 l 1.818182,-0.559239 1.818181,-0.55924 0.08602,1.857779 0.08602,1.857779 h 1.2958 1.295799 v 1.309091 1.309091 h -1.309091 -1.309091 v 3.16438 c 0,3.524867 0.211441,3.980531 1.74279,3.755776 0.867346,-0.127299 0.875392,-0.115907 0.875392,1.239319 0,1.299207 -0.04559,1.376916 -0.909091,1.549616 -1.393244,0.278649 -2.638776,0.198626 -3.6,-0.231293 z m 7.422229,-0.09643 c -1.224871,-0.614333 -1.739489,-1.553759 -1.745213,-3.185859 -0.006,-1.702732 0.509561,-2.658098 1.785661,-3.309116 0.861398,-0.439452 3.923702,-1.099759 5.264596,-1.135174 0.42614,-0.01125 0.209886,-1.086731 -0.313816,-1.560675 -0.67615,-0.611908 -2.900623,-0.635163 -4.312873,-0.04509 -0.574401,0.24 -1.093833,0.436363 -1.154293,0.436363 -0.06046,0 -0.109927,-0.572078 -0.109927,-1.271284 0,-1.266337 0.0054,-1.272846 1.381818,-1.672727 1.94768,-0.565837 4.935869,-0.497912 6.131951,0.139385 1.691838,0.901445 2.072449,2.253167 2.079842,7.386445 l 0.0064,4.436363 h -1.745455 -1.745454 v -0.937456 -0.937456 l -0.474384,0.677277 c -0.988106,1.410719 -3.295862,1.858208 -5.048842,0.979001 z m 4.809176,-2.822688 c 0.494157,-0.494157 0.71405,-1.037161 0.71405,-1.763279 v -1.04923 l -1.381819,0.200463 c -0.76,0.110255 -1.602043,0.3145 -1.871207,0.45388 -0.749637,0.388178 -0.928774,1.353329 -0.400756,2.159187 0.627913,0.958316 1.980865,0.957847 2.939732,-0.001 z m 10.208526,2.906104 c -1.376976,-0.490878 -2.740986,-1.732863 -3.275759,-2.982711 -0.578543,-1.352141 -0.498639,-4.347003 0.154341,-5.784846 0.298153,-0.656527 0.917097,-1.543553 1.375429,-1.97117 1.450646,-1.353429 5.063425,-2.05863 6.923484,-1.351437 0.667211,0.253673 0.746211,0.441756 0.746211,1.776579 0,1.315482 -0.06049,1.465533 -0.509091,1.26281 -0.28,-0.126532 -1.165576,-0.281778 -1.967947,-0.34499 -1.162868,-0.09161 -1.618874,0.01094 -2.247544,0.505451 -1.709081,1.344364 -1.709081,4.488519 0,5.832882 0.62867,0.494513 1.084676,0.597064 2.247544,0.505451 0.802371,-0.06321 1.687947,-0.218457 1.967947,-0.34499 0.447557,-0.202251 0.509091,-0.05466 0.509091,1.221075 v 1.451135 l -1.292457,0.325444 c -1.695347,0.426893 -3.245887,0.393185 -4.631249,-0.100683 z m 10.615346,-0.203953 c -3.810533,-1.886155 -3.529792,-9.664647 0.41839,-11.592418 0.65051,-0.317626 1.60381,-0.577502 2.11843,-0.577502 1.15747,0 2.91024,0.709068 3.42338,1.384905 0.32509,0.428157 0.38562,-0.04225 0.39345,-3.057632 L 107.63637,12.8 h 1.01818 1.01818 v 8.872728 8.872727 h -1.01818 c -0.95066,0 -1.01818,-0.06149 -1.01818,-0.927153 v -0.927154 l -0.8,0.763192 c -1.58338,1.510527 -3.50549,1.77034 -5.56291,0.751944 z m 4.73204,-1.572889 c 1.24108,-0.863151 1.62695,-1.91003 1.62895,-4.419485 0.002,-2.32159 -0.0315,-2.440748 -0.97013,-3.464955 -0.85439,-0.932303 -1.13237,-1.058259 -2.29668,-1.040657 -2.57004,0.03885 -3.85022,1.738773 -3.83487,5.092247 0.0103,2.251342 0.53368,3.23035 2.17882,4.075592 1.06227,0.545774 2.29025,0.455278 3.29391,-0.242742 z m 16.71236,1.936367 c -1.61023,-0.521747 -2.60173,-1.351232 -3.30709,-2.766711 -1.54089,-3.092148 -0.52712,-7.397067 2.07735,-8.821431 1.53408,-0.838972 3.42431,-1.094075 4.98762,-0.67312 1.15933,0.312175 1.23335,0.394683 1.23335,1.374697 0,0.884836 -0.0648,0.988829 -0.42811,0.687284 -0.70955,-0.588871 -2.4303,-0.846665 -3.56329,-0.533832 -3.11244,0.859387 -4.30074,5.414362 -2.07409,7.950379 1.34834,1.53568 2.54561,1.724472 5.41095,0.853229 0.56115,-0.170625 0.65454,-0.09187 0.65454,0.551943 0,0.463533 -0.23224,0.875261 -0.60678,1.075706 -0.81111,0.434093 -3.42165,0.61382 -4.38445,0.301856 z m 10.06794,-0.06234 c -1.24184,-0.603312 -1.43186,-1.34471 -1.5374,-5.998333 l -0.10062,-4.436364 h -0.99207 c -0.90836,0 -0.99207,-0.07364 -0.99207,-0.872728 0,-0.803463 0.0808,-0.872727 1.01818,-0.872727 H 131.2 v -1.405736 c 0,-1.353095 0.0381,-1.417439 1.01818,-1.718226 l 1.01819,-0.312488 v 1.718225 1.718225 h 1.45454 c 1.42222,0 1.45455,0.01939 1.45455,0.872727 0,0.853334 -0.0323,0.872728 -1.45455,0.872728 h -1.45454 v 4.182561 c 0,4.673824 0.11626,4.972373 1.91658,4.921341 0.84796,-0.02404 0.99251,0.06865 0.99251,0.636417 0,0.963967 -1.96766,1.370644 -3.35966,0.694378 z m 6.94394,-0.140383 c -0.97947,-0.483036 -1.84308,-1.927785 -1.83244,-3.065552 0.004,-0.375819 0.24978,-1.219235 0.54726,-1.874258 0.61854,-1.361963 1.7587,-1.955543 4.39181,-2.286434 2.42705,-0.304996 2.61925,-0.398522 2.60893,-1.269492 -0.0261,-2.200039 -2.96987,-2.963273 -5.36822,-1.391815 -0.95932,0.628568 -1.02253,0.602504 -1.02253,-0.421607 0,-0.74797 0.1687,-0.95806 1.07258,-1.335725 1.67418,-0.699518 3.85075,-0.824396 5.12067,-0.293791 1.85065,0.773251 2.22907,2.048118 2.23672,7.535269 l 0.006,4.581818 h -1.01818 c -0.953,0 -1.01818,-0.06002 -1.01818,-0.937456 v -0.937456 l -0.47439,0.677277 c -0.97367,1.390115 -3.5028,1.881074 -5.25042,1.019222 z m 4.77935,-2.317763 c 0.81328,-0.848313 0.94546,-1.192882 0.94546,-2.46461 0,-1.268944 -0.0721,-1.458016 -0.50909,-1.334406 -0.28,0.07921 -1.1939,0.230884 -2.03088,0.337057 -1.88361,0.238939 -2.98731,1.042015 -2.98731,2.173639 0,1.269291 0.29606,1.777807 1.27991,2.198404 1.22649,0.524329 2.17824,0.262006 3.30191,-0.910084 z M 47.127273,24.436364 v -6.109091 h 1.89091 1.890909 v 6.109091 6.109091 h -1.890909 -1.89091 z m 66.618187,0 v -6.109091 h 0.87272 0.87273 v 6.109091 6.109091 h -0.87273 -0.87272 z M 47.544208,15.911625 c -0.645815,-0.555506 -0.745709,-0.822429 -0.583752,-1.559814 0.347472,-1.582031 2.324014,-2.039243 3.543562,-0.819695 0.829115,0.829116 0.749762,1.689763 -0.234251,2.540612 -0.805947,0.696879 -1.796139,0.638351 -2.725559,-0.161103 z m 66.259432,-1.133443 c -0.48676,-0.486762 -0.43569,-1.54416 0.0959,-1.985331 0.34024,-0.282381 0.61412,-0.292233 1.16363,-0.04186 1.16658,0.531526 0.82113,2.376279 -0.44498,2.376279 -0.256,0 -0.62254,-0.157091 -0.81454,-0.349091 z"
         id="path2" />
    </g>
  </g>
</svg>
